<?xml version="1.0" standalone="no"?>
<!DOCTYPE svg PUBLIC "-//W3C//DTD SVG 20010904//EN"
 "http://www.w3.org/TR/2001/REC-SVG-20010904/DTD/svg10.dtd">
<svg version="1.0" xmlns="http://www.w3.org/2000/svg"
 width="512.000000pt" height="512.000000pt" viewBox="0 0 512.000000 512.000000"
 preserveAspectRatio="xMidYMid meet">
<metadata>
Created by potrace 1.14, written by Peter Selinger 2001-2017
</metadata>
<g transform="translate(0.000000,512.000000) scale(0.100000,-0.100000)"
fill="#000000" stroke="none">
<path d="M1423 4992 c-34 -3 -82 -49 -84 -80 -3 -44 -9 -77 -18 -103 -7 -20
-7 -29 1 -29 7 0 7 -5 -1 -14 -6 -8 -11 -18 -10 -22 1 -5 0 -11 -1 -14 -4 -12
-18 -162 -35 -394 -9 -129 -9 -129 -26 -134 -8 -2 -10 0 -4 5 15 12 17 31 5
53 -6 11 -6 21 -1 24 5 4 8 17 6 31 -1 14 1 43 5 65 4 24 3 43 -3 49 -6 6 -7
11 -2 11 12 0 14 345 2 377 -4 12 -27 31 -51 42 -45 22 -60 26 -53 14 3 -5 -6
-9 -20 -10 -35 -2 -60 -31 -67 -77 -4 -21 -9 -42 -12 -47 -3 -5 1 -9 8 -9 10
0 10 -2 -1 -9 -9 -6 -10 -10 -2 -16 7 -4 8 -11 3 -18 -4 -7 -8 -29 -7 -49 0
-21 -3 -38 -8 -38 -5 0 -4 -6 2 -14 7 -8 8 -16 4 -19 -4 -3 -8 -37 -8 -76 0
-39 -3 -71 -6 -71 -3 0 -6 -12 -6 -27 0 -16 -1 -90 -2 -165 0 -76 -5 -138 -9
-138 -5 0 -9 30 -9 68 -1 37 -2 126 -3 199 l-2 132 -32 36 c-17 20 -42 38 -56
40 -33 6 -90 -13 -90 -30 0 -7 -4 -15 -9 -17 -5 -1 -11 -28 -13 -58 -2 -30 -7
-60 -11 -66 -3 -6 -3 -14 0 -18 10 -10 14 -48 5 -42 -9 5 -7 -52 2 -61 3 -4 1
-12 -5 -20 -9 -9 -8 -13 0 -13 6 0 11 -7 11 -15 0 -8 -6 -15 -12 -15 -9 0 -10
-3 -2 -8 6 -4 11 -23 11 -42 0 -19 -5 -38 -11 -42 -8 -5 -8 -8 0 -8 6 0 11
-32 12 -82 2 -89 11 -257 16 -298 15 -121 20 -148 29 -170 5 -14 11 -32 13
-40 5 -25 58 -124 76 -142 23 -23 23 -34 -1 -41 -32 -8 -84 -106 -86 -162 0
-5 -3 -12 -7 -15 -4 -3 -9 -15 -11 -25 -3 -16 -17 -67 -32 -115 -1 -3 -5 -13
-9 -22 -4 -9 -9 -25 -11 -35 -2 -10 -4 -19 -5 -20 -2 -2 -3 -6 -4 -10 -16 -70
-30 -120 -37 -129 -5 -6 -6 -14 -2 -17 3 -4 2 -7 -3 -7 -5 0 -10 -8 -10 -17
-1 -28 -38 -158 -46 -161 -4 -2 -4 -10 -1 -18 3 -8 1 -14 -4 -14 -5 0 -10 -6
-11 -12 0 -7 -3 -24 -6 -38 -4 -14 -8 -37 -11 -52 -3 -15 -10 -39 -15 -53 -5
-14 -11 -39 -12 -55 -1 -17 -6 -30 -11 -30 -4 0 -5 -4 -2 -10 3 -5 2 -18 -3
-27 -6 -10 -12 -38 -15 -63 -14 -106 -21 -176 -19 -182 1 -5 -1 -8 -5 -8 -5 0
-8 -12 -9 -27 0 -16 -4 -44 -8 -63 -4 -19 -9 -55 -11 -80 -2 -25 -4 -45 -5
-45 -1 0 -3 -9 -6 -20 -24 -115 -25 -358 -1 -422 9 -22 13 -44 10 -47 -4 -3
-1 -6 6 -6 7 0 9 -5 6 -10 -4 -6 -3 -16 2 -23 5 -7 15 -32 22 -57 13 -44 17
-55 62 -155 23 -52 26 -59 28 -74 0 -5 7 -16 14 -23 15 -16 41 -70 39 -81 -1
-4 3 -7 8 -7 6 0 10 -7 10 -15 0 -8 4 -15 8 -15 5 0 16 -16 25 -36 19 -39 90
-138 122 -169 12 -11 24 -28 28 -38 3 -9 11 -17 16 -17 5 0 13 -10 17 -22 7
-23 9 -27 54 -78 16 -19 30 -40 30 -47 0 -7 5 -13 10 -13 6 0 10 -7 10 -15 0
-8 5 -15 10 -15 6 0 10 -7 10 -16 0 -20 42 -118 52 -122 4 -2 8 -8 8 -13 0 -6
21 -51 46 -102 25 -51 47 -101 50 -112 2 -11 8 -21 14 -23 5 -2 10 -10 10 -18
0 -12 210 -14 1483 -14 1406 0 1484 1 1484 18 0 9 -4 23 -10 29 -5 7 -7 13 -3
13 4 0 -3 19 -15 42 -12 24 -21 45 -21 48 2 10 -41 121 -49 126 -5 3 -9 12 -9
21 0 8 -12 38 -26 67 -14 28 -25 52 -25 54 1 1 -10 27 -24 57 -14 31 -25 60
-25 65 0 6 -3 10 -7 10 -5 0 -17 21 -27 47 -21 51 -71 113 -91 113 -7 0 -18 7
-25 15 -7 8 -21 15 -31 15 -11 0 -19 4 -19 9 0 4 -21 16 -47 25 -27 10 -59 23
-73 31 -14 7 -50 23 -80 35 -30 12 -68 27 -85 35 -66 28 -113 44 -119 38 -3
-4 -6 -2 -6 4 0 9 -109 47 -135 47 -5 0 -35 25 -67 56 l-56 55 57 50 c31 28
77 74 101 103 25 30 52 61 60 71 17 19 54 75 52 78 -1 2 10 14 23 29 14 15 22
30 20 34 -3 5 -2 10 2 12 8 3 55 94 59 113 6 27 30 81 42 93 15 17 16 26 1 16
-7 -4 -6 3 2 17 12 22 15 32 23 79 2 8 11 16 22 18 56 8 63 14 88 65 14 28 28
71 32 95 4 23 12 42 18 42 6 0 4 5 -4 10 -8 5 -10 10 -4 10 6 0 11 6 12 13 3
39 10 85 14 93 2 5 6 29 7 54 2 25 4 60 6 78 5 78 -30 182 -57 166 -4 -3 -8 0
-8 6 0 14 -38 3 -58 -16 -19 -20 -41 -17 -37 4 2 9 4 17 5 17 6 0 12 100 13
200 0 140 -6 245 -14 245 -3 0 -6 16 -7 35 -1 20 -5 41 -9 48 -4 6 -8 18 -8
27 -3 29 -27 135 -33 145 -4 6 -7 15 -8 20 -5 22 -57 141 -68 155 -6 8 -18 29
-26 45 -8 17 -21 37 -30 46 -8 9 -24 29 -35 45 -24 33 -103 113 -133 133 -11
8 -18 19 -15 24 3 6 1 7 -5 3 -6 -3 -16 0 -24 7 -7 7 -21 16 -30 20 -10 3 -18
11 -18 17 0 5 -7 10 -15 10 -8 0 -15 5 -15 12 0 6 -3 9 -6 5 -3 -3 -23 4 -43
17 -36 23 -139 62 -153 58 -5 -1 -8 3 -8 10 0 6 -3 8 -7 5 -3 -4 -12 -2 -20 4
-7 6 -13 9 -13 6 0 -3 -15 -1 -32 4 -18 5 -62 12 -98 15 -36 4 -70 10 -76 15
-6 5 -14 6 -17 2 -10 -9 -77 -10 -83 -1 -3 5 -11 5 -17 1 -6 -4 -32 -8 -57 -9
-53 -2 -191 -24 -205 -33 -5 -3 -12 -6 -15 -7 -55 -8 -228 -86 -242 -108 -4
-6 -8 -7 -8 -1 0 6 -3 6 -8 0 -4 -6 -20 -19 -35 -28 -45 -29 -65 -47 -149
-131 -43 -43 -76 -81 -73 -84 3 -3 -4 -11 -15 -19 -11 -8 -20 -18 -20 -23 0
-4 -16 -36 -34 -69 -19 -34 -32 -61 -29 -61 3 0 -2 -11 -11 -25 -9 -14 -14
-25 -12 -25 3 0 -1 -18 -9 -39 -7 -22 -13 -41 -12 -43 1 -1 0 -2 -2 -1 -2 2
-13 29 -23 60 -11 32 -25 61 -31 65 -12 7 54 78 74 78 7 0 10 2 7 5 -3 3 18
29 46 58 43 44 87 102 141 185 59 92 151 164 230 182 27 6 55 16 62 22 7 6 13
7 13 4 0 -4 13 1 29 10 107 63 0 228 -144 222 -25 0 -45 -4 -45 -8 0 -3 -16
-12 -35 -19 -19 -7 -35 -17 -35 -22 0 -6 -4 -8 -9 -5 -5 3 -11 0 -14 -7 -6
-17 -74 -51 -102 -52 -34 -1 -77 27 -83 55 -2 8 -7 17 -11 20 -9 7 -8 169 1
164 4 -3 6 9 4 25 -2 17 0 31 4 31 4 0 7 6 7 13 1 25 16 153 20 172 2 11 7 39
10 63 3 23 9 42 12 42 4 0 8 15 9 33 2 17 5 46 7 62 12 74 16 159 11 190 -11
54 -88 90 -138 64 -32 -17 -46 -38 -54 -84 -9 -47 -11 -54 -14 -57 -1 -2 -3
-14 -5 -28 -8 -57 -13 -88 -23 -137 -12 -55 -20 -113 -26 -176 -2 -20 -10 -45
-17 -54 -10 -12 -10 -15 -1 -9 6 4 12 2 12 -3 0 -6 -4 -11 -9 -11 -5 0 -9 -11
-10 -25 -3 -47 -4 -55 -12 -55 -4 0 -6 30 -4 68 1 37 4 67 5 67 1 0 2 27 3 60
1 33 5 65 8 70 4 6 5 17 4 26 -2 8 3 48 10 87 7 43 8 75 3 78 -5 3 -5 11 1 18
10 12 25 162 24 238 0 42 -26 88 -49 88 -9 0 -12 5 -8 12 5 7 2 9 -9 5 -9 -3
-17 -3 -19 1 -2 4 -17 6 -35 4z m154 -2167 c-1 -19 -4 -35 -7 -35 -3 0 -5 -41
-5 -90 0 -50 -4 -90 -8 -90 -4 0 -4 -8 1 -17 5 -10 8 -37 8 -60 -1 -24 1 -43
4 -43 3 0 6 -8 7 -17 1 -10 4 -31 7 -46 6 -37 -17 -46 -47 -20 -12 11 -32 19
-44 18 -13 -1 -23 1 -23 4 1 3 9 42 20 86 10 44 17 83 14 86 -2 4 0 9 5 11 5
1 12 17 14 33 5 24 19 97 31 160 4 20 17 55 21 55 2 0 3 -16 2 -35z m-147
-685 c0 -5 -5 -10 -11 -10 -5 0 -7 5 -4 10 3 6 8 10 11 10 2 0 4 -4 4 -10z m3
-57 c-3 -7 0 -13 6 -13 6 0 11 -10 10 -22 0 -31 21 -128 33 -151 5 -10 11 -27
13 -38 6 -29 60 -73 90 -74 24 0 29 -8 62 -105 19 -58 39 -106 44 -108 4 -2 5
-10 2 -18 -3 -8 -1 -14 5 -14 5 0 12 -10 16 -22 3 -13 22 -50 43 -82 21 -33
36 -60 33 -61 -3 0 10 -15 28 -33 17 -17 32 -35 32 -39 0 -5 12 -21 26 -36 26
-29 28 -49 2 -25 -7 7 -20 14 -28 16 -8 2 -31 10 -50 19 -48 21 -67 28 -125
48 -46 16 -85 44 -85 61 0 10 -161 164 -172 164 -4 0 -8 6 -8 13 0 8 -9 22
-20 32 -11 10 -17 22 -13 28 3 6 1 7 -5 3 -25 -15 -34 52 -14 104 3 8 6 23 6
32 1 9 4 19 8 23 4 4 4 13 1 21 -3 8 -1 14 4 14 5 0 9 10 10 23 0 12 6 47 12
77 6 30 13 87 15 125 5 86 4 83 15 66 5 -8 7 -20 4 -28z"/>
</g>
</svg>
