<?xml version="1.0" standalone="no"?>
<!DOCTYPE svg PUBLIC "-//W3C//DTD SVG 20010904//EN"
 "http://www.w3.org/TR/2001/REC-SVG-20010904/DTD/svg10.dtd">
<svg version="1.0" xmlns="http://www.w3.org/2000/svg"
 width="1024.000000pt" height="1024.000000pt" viewBox="0 0 1024.000000 1024.000000"
 preserveAspectRatio="xMidYMid meet">
<metadata>
Created by potrace 1.14, written by Peter Selinger 2001-2017
</metadata>
<g transform="translate(0.000000,1024.000000) scale(0.100000,-0.100000)"
fill="#000000" stroke="none">
<path d="M5566 8895 c6 -15 4 -16 -13 -6 -17 8 -22 7 -27 -5 -4 -11 -10 -13
-19 -7 -14 11 -27 11 -46 -1 -11 -7 -13 -5 -8 8 6 14 3 15 -13 6 -11 -6 -26
-8 -33 -4 -7 5 -5 -1 3 -11 15 -19 15 -19 -14 -1 -28 18 -29 18 -22 0 4 -10 4
-15 0 -11 -4 4 -14 1 -22 -6 -11 -8 -14 -9 -9 0 5 8 0 11 -13 10 -11 -1 -20
-4 -20 -7 0 -3 -9 -6 -20 -7 -13 -1 -18 3 -14 10 3 7 -1 4 -9 -5 -16 -21 -32
-24 -21 -5 4 6 -2 4 -13 -6 -12 -11 -27 -15 -38 -11 -13 5 -16 4 -11 -4 4 -7
3 -12 -3 -12 -5 0 -13 5 -16 11 -5 7 -14 4 -28 -8 -14 -13 -18 -14 -13 -3 4 8
-2 4 -14 -10 -15 -17 -20 -19 -16 -8 4 15 3 16 -14 6 -10 -7 -16 -16 -14 -20
8 -13 -11 -9 -25 5 -9 7 -11 7 -8 1 4 -7 0 -14 -8 -18 -10 -3 -15 1 -15 12 0
14 -2 15 -9 2 -6 -8 -7 -19 -3 -25 3 -5 -2 -4 -12 4 -9 8 -16 10 -14 5 2 -5
-1 -11 -7 -13 -5 -2 -16 -11 -23 -20 -8 -10 -11 -10 -6 -2 5 11 3 13 -10 8
-10 -4 -20 -7 -22 -7 -3 0 -2 -6 2 -12 5 -8 0 -7 -11 2 -15 12 -17 12 -10 1 6
-11 4 -13 -9 -8 -10 4 -15 3 -11 -3 5 -9 -15 -15 -37 -11 -4 0 -12 -8 -18 -20
-9 -16 -14 -18 -26 -8 -12 10 -13 9 -8 -5 4 -12 2 -15 -9 -11 -8 4 -17 -1 -21
-10 -3 -9 -10 -13 -16 -10 -5 3 -10 1 -10 -4 0 -6 -6 -11 -14 -11 -8 0 -18 -5
-22 -12 -5 -7 -3 -8 6 -3 9 5 11 4 6 -4 -4 -6 -11 -9 -16 -6 -16 10 -52 -15
-46 -31 4 -11 2 -12 -13 -5 -19 11 -41 -3 -41 -26 0 -7 -9 -17 -19 -23 -26
-13 -34 -13 -25 2 4 7 3 8 -5 4 -6 -4 -9 -12 -5 -17 3 -6 -4 -13 -16 -16 -12
-3 -19 -11 -16 -19 3 -8 2 -13 -2 -13 -21 3 -32 -2 -26 -13 5 -10 4 -10 -6 -1
-11 10 -16 9 -27 -5 -8 -9 -11 -11 -7 -3 5 10 1 11 -17 6 -13 -4 -25 -11 -27
-14 -1 -4 -19 -5 -39 -3 -23 3 -33 1 -29 -6 3 -6 -1 -9 -11 -8 -10 2 -30 0
-44 -4 -14 -4 -34 -3 -44 2 -12 7 -16 7 -11 0 3 -6 2 -13 -4 -17 -5 -3 -10 0
-10 7 0 10 -2 10 -9 -1 -5 -7 -14 -10 -20 -7 -6 4 -11 2 -11 -5 0 -8 -4 -8
-15 1 -13 11 -14 10 -9 -3 4 -13 0 -15 -25 -12 -22 3 -29 1 -25 -7 5 -8 2 -9
-9 -5 -10 4 -17 2 -17 -4 0 -6 -6 -9 -14 -6 -8 3 -17 -1 -20 -10 -5 -13 -9
-13 -23 -2 -14 12 -16 12 -8 0 6 -11 4 -13 -8 -8 -10 3 -17 2 -17 -4 0 -6 -4
-7 -10 -4 -5 3 -10 0 -10 -7 0 -9 -3 -9 -10 2 -7 12 -10 12 -10 1 0 -8 -6 -11
-16 -7 -10 4 -13 2 -8 -6 5 -7 -1 -9 -20 -6 -23 5 -24 3 -14 -10 11 -13 10
-15 -4 -9 -10 3 -18 2 -18 -4 0 -6 -4 -7 -10 -4 -5 3 -10 1 -10 -5 0 -7 -7
-10 -15 -6 -9 3 -15 0 -15 -10 0 -11 -6 -14 -16 -10 -10 4 -13 2 -8 -6 5 -8 2
-9 -9 -5 -10 3 -17 2 -17 -4 0 -6 -6 -7 -12 -3 -10 6 -10 5 -1 -7 10 -13 8
-15 -18 -13 -26 2 -28 0 -17 -14 7 -10 8 -14 4 -10 -5 4 -16 2 -24 -5 -13 -10
-14 -9 -7 2 5 10 4 12 -3 7 -7 -4 -12 -14 -12 -23 0 -13 -3 -13 -15 -3 -12 10
-16 9 -21 -4 -4 -10 -12 -15 -20 -12 -8 3 -11 -2 -9 -13 2 -10 -3 -18 -10 -18
-8 0 -12 5 -9 11 3 6 -1 3 -9 -6 -8 -10 -18 -14 -23 -10 -4 4 -2 -1 5 -11 12
-15 12 -17 -4 -11 -13 5 -16 4 -11 -4 4 -7 1 -12 -9 -12 -10 0 -13 -5 -9 -12
5 -9 2 -8 -9 1 -15 12 -17 12 -12 -2 4 -8 1 -18 -6 -23 -8 -5 -10 -3 -4 7 7
11 6 12 -7 2 -8 -7 -19 -9 -24 -5 -4 4 -2 -1 5 -10 12 -15 11 -18 -3 -18 -9 0
-16 -5 -16 -11 0 -5 -4 -7 -10 -4 -5 3 -10 -1 -10 -10 0 -12 -6 -15 -22 -11
-13 3 -18 3 -11 0 9 -4 5 -13 -12 -30 -14 -14 -25 -30 -25 -36 0 -7 -4 -7 -13
1 -10 8 -14 7 -15 -4 -1 -8 -3 -22 -4 -30 -1 -12 -4 -12 -17 -2 -12 10 -14 9
-8 -5 5 -14 1 -18 -14 -18 -15 0 -19 -5 -15 -15 3 -10 -1 -15 -12 -15 -13 0
-14 -2 -3 -9 16 -10 3 -20 -22 -16 -14 3 -16 0 -7 -10 8 -10 4 -18 -17 -35
-15 -12 -23 -19 -17 -16 6 3 11 -1 11 -8 0 -8 -6 -12 -13 -9 -6 2 -15 -1 -19
-6 -3 -6 -10 -9 -15 -6 -4 3 -6 -5 -2 -17 3 -14 1 -19 -6 -14 -8 5 -10 1 -5
-10 5 -13 3 -16 -10 -11 -11 4 -14 2 -10 -9 3 -7 0 -14 -6 -14 -6 0 -11 -5
-11 -11 0 -5 4 -8 9 -5 5 4 4 -5 -2 -18 -8 -16 -14 -21 -19 -13 -6 9 -8 8 -8
-2 0 -8 -8 -20 -17 -27 -17 -13 -17 -14 2 -8 19 5 19 5 3 -9 -10 -8 -15 -17
-11 -20 3 -4 1 -7 -6 -7 -8 0 -11 -7 -7 -15 5 -14 -5 -20 -27 -16 -5 1 -6 -3
-2 -9 3 -6 12 -8 18 -4 7 3 3 -2 -7 -10 -11 -9 -16 -16 -11 -16 5 0 4 -5 -3
-12 -7 -7 -12 -20 -12 -30 0 -10 -5 -18 -11 -18 -5 0 -8 -4 -5 -9 3 -5 -1 -12
-10 -15 -9 -4 -14 -9 -11 -13 4 -3 -1 -12 -11 -20 -9 -8 -12 -12 -5 -9 6 4 15
2 18 -4 4 -6 3 -10 -2 -9 -23 4 -29 -4 -28 -37 2 -26 -1 -34 -12 -30 -11 4
-11 1 -3 -14 6 -11 7 -20 2 -20 -5 0 -9 -8 -9 -17 0 -40 -4 -54 -12 -48 -5 3
-12 1 -16 -5 -3 -5 -2 -10 4 -10 11 0 9 -18 -7 -47 -9 -16 -9 -24 -1 -29 8 -5
6 -10 -6 -17 -12 -7 -14 -11 -5 -17 8 -5 7 -11 -4 -23 -12 -11 -13 -17 -3 -20
9 -4 9 -6 -1 -6 -7 -1 -10 -5 -7 -11 3 -5 1 -10 -6 -10 -7 0 -5 -6 6 -13 14
-11 15 -16 5 -22 -9 -6 -11 -4 -5 5 5 8 4 11 -2 7 -7 -5 -10 -52 -3 -52 1 0 3
-12 4 -28 1 -21 -2 -26 -14 -22 -11 5 -12 3 -3 -6 6 -6 9 -18 6 -27 -5 -11 -3
-13 8 -7 12 8 12 6 0 -8 -11 -14 -11 -17 0 -17 11 0 11 -2 -1 -10 -12 -7 -13
-13 -3 -28 7 -12 8 -24 2 -33 -12 -19 -11 -32 2 -23 8 5 8 1 0 -14 -8 -14 -8
-23 -1 -27 8 -5 7 -11 -1 -21 -9 -11 -9 -14 0 -14 9 0 9 -5 1 -20 -8 -15 -8
-20 2 -20 8 0 9 -3 3 -8 -15 -10 -18 -35 -4 -26 9 5 10 2 6 -10 -4 -10 -4 -23
0 -29 11 -17 13 -38 3 -32 -5 3 -12 0 -16 -6 -4 -7 -3 -9 3 -6 6 4 17 -1 24
-10 10 -12 10 -14 2 -9 -7 4 -13 2 -13 -3 0 -6 5 -11 11 -11 6 0 8 -9 4 -21
-4 -13 -3 -19 2 -16 6 4 15 -5 21 -18 9 -20 9 -23 -3 -18 -8 3 -12 10 -8 16 4
6 1 7 -6 3 -9 -6 -9 -12 3 -25 18 -20 21 -35 6 -26 -6 3 -7 -1 -4 -10 5 -13 9
-13 22 -3 13 11 14 10 3 -9 -7 -15 -8 -23 -1 -23 5 0 10 -5 10 -11 0 -5 -5 -7
-10 -4 -5 3 -10 1 -10 -4 0 -6 7 -11 15 -11 8 0 15 -5 15 -11 0 -5 -4 -7 -10
-4 -6 3 -7 -1 -4 -9 3 -9 11 -13 18 -9 6 4 5 -1 -3 -10 -9 -11 -10 -17 -2 -17
6 0 11 -7 11 -16 0 -8 -4 -12 -10 -9 -18 11 -10 -7 12 -26 11 -11 18 -19 13
-19 -4 0 3 -9 16 -21 l24 -20 -23 11 -24 12 22 -30 c14 -18 19 -35 15 -44 -5
-7 -5 -10 -1 -6 5 4 14 1 21 -5 10 -9 10 -15 1 -26 -8 -12 -8 -13 2 -7 7 4 12
1 12 -9 0 -10 5 -13 13 -9 6 4 9 4 5 -1 -4 -4 -2 -15 5 -23 10 -13 9 -15 -3
-8 -8 4 -7 1 4 -8 10 -8 16 -22 13 -30 -4 -9 -1 -15 6 -13 7 1 11 -6 9 -17 -3
-14 1 -17 13 -13 11 5 15 2 13 -11 -2 -9 -7 -21 -13 -25 -6 -4 -1 -7 10 -5 14
2 19 -2 17 -14 -2 -12 2 -16 12 -12 11 4 14 -2 12 -25 -2 -24 1 -28 11 -19 10
8 13 6 13 -6 0 -21 25 -48 34 -38 4 3 4 -1 0 -11 -4 -12 -1 -17 12 -18 11 0
14 -3 7 -6 -15 -6 1 -25 30 -36 10 -4 17 -17 17 -32 0 -15 6 -25 14 -25 8 0
18 -5 22 -12 5 -8 2 -9 -11 -4 -15 5 -16 4 -5 -9 7 -8 16 -13 20 -10 11 7 32
-20 23 -29 -4 -4 1 -4 12 0 11 4 17 3 13 -1 -5 -5 1 -14 12 -22 11 -8 20 -20
20 -28 0 -18 37 -38 53 -29 6 5 5 -1 -3 -11 -8 -10 -10 -16 -4 -12 7 4 14 -2
17 -15 5 -19 8 -20 24 -7 10 7 15 10 11 5 -4 -5 0 -15 8 -23 8 -8 11 -20 7
-26 -4 -7 1 -6 10 2 15 12 17 11 17 -3 0 -11 5 -14 12 -10 7 5 9 2 5 -8 -4
-12 0 -15 19 -13 18 2 24 -3 24 -16 0 -11 5 -19 11 -19 5 0 7 6 3 13 -4 7 -3
9 2 4 5 -5 10 -13 10 -18 1 -5 2 -12 3 -15 0 -4 8 -1 16 6 13 10 15 9 15 -10
0 -17 4 -21 20 -17 11 3 25 -2 32 -11 10 -12 10 -14 1 -8 -7 4 -13 5 -13 2 0
-3 10 -10 21 -17 17 -9 20 -8 14 3 -3 7 0 5 8 -4 8 -10 17 -15 20 -11 4 3 7 1
7 -5 0 -7 7 -12 15 -12 8 0 15 -6 15 -12 0 -9 4 -8 10 2 7 11 10 11 10 2 0 -7
5 -10 10 -7 6 3 10 -2 10 -12 0 -15 2 -16 10 -3 8 12 10 12 10 -5 0 -17 2 -17
10 -5 9 13 10 13 11 0 1 -8 1 -18 0 -22 0 -4 6 -5 14 -2 8 4 15 1 15 -5 0 -9
5 -9 20 -1 11 6 21 8 21 5 1 -3 2 -9 3 -14 2 -16 16 -25 16 -11 0 9 5 7 16 -6
15 -19 16 -19 10 1 l-6 20 18 -20 c10 -11 24 -21 32 -23 8 -2 18 -8 21 -14 4
-6 9 -5 12 3 5 12 6 12 6 0 1 -11 4 -11 18 0 11 10 14 10 9 2 -5 -9 0 -13 13
-13 12 0 21 -4 21 -10 0 -5 5 -10 11 -10 5 0 7 6 4 13 -4 6 1 3 9 -7 16 -20
51 -32 40 -14 -4 6 5 3 19 -6 20 -13 26 -14 30 -4 3 8 6 5 6 -7 1 -14 4 -16
12 -8 15 15 49 4 50 -16 0 -10 2 -11 6 -3 2 6 11 12 19 12 10 0 12 -5 8 -12
-5 -8 0 -7 11 2 10 8 16 10 12 3 -5 -8 4 -13 30 -15 27 -2 37 -7 35 -17 -3
-12 0 -12 12 -2 13 11 17 10 22 -4 5 -13 9 -14 15 -3 5 7 9 8 9 2 0 -11 15
-14 58 -14 14 0 22 -6 23 -18 0 -10 3 -12 6 -4 3 9 9 7 21 -6 10 -10 13 -11 7
-3 -8 12 -7 12 12 3 28 -15 36 -15 27 1 -6 10 -4 10 7 0 7 -7 23 -13 35 -13
12 0 24 -7 28 -15 3 -9 12 -12 22 -8 9 3 20 0 25 -8 6 -10 9 -10 9 -1 0 6 5
12 11 12 5 0 7 -5 3 -12 -5 -8 0 -9 14 -6 12 4 24 2 27 -2 3 -5 17 -7 31 -5
17 1 24 -2 20 -10 -3 -9 2 -11 16 -7 14 3 26 -2 36 -14 10 -13 13 -14 9 -3 -3
9 0 16 9 16 7 0 11 -4 8 -9 -5 -7 10 -12 29 -9 4 0 7 -4 7 -9 0 -6 12 -10 26
-10 17 0 23 -4 18 -12 -4 -7 -4 -10 0 -6 5 4 19 3 33 -3 16 -6 22 -5 18 1 -3
6 1 7 9 4 9 -3 13 -11 9 -18 -4 -6 1 -5 10 3 13 10 17 10 17 1 0 -9 4 -9 17 1
11 10 14 10 9 2 -4 -8 -2 -13 4 -13 6 0 9 -4 6 -8 -3 -5 1 -9 8 -9 8 0 12 7 9
16 -3 12 -2 12 7 -2 6 -9 22 -17 36 -17 17 0 23 -4 18 -12 -4 -6 -3 -8 4 -4 6
3 13 2 17 -3 3 -6 12 -8 20 -4 8 3 23 -3 33 -14 9 -10 13 -13 8 -6 -6 10 -4
12 8 7 9 -3 16 -10 16 -16 0 -5 4 -7 9 -3 6 3 22 -7 37 -22 14 -16 24 -23 20
-16 -4 7 1 11 14 10 11 -1 20 -7 20 -13 0 -7 8 -10 20 -7 18 5 25 -4 22 -28
-1 -4 7 -5 17 -2 11 3 22 -4 29 -19 7 -13 10 -15 8 -5 -3 9 -2 17 3 17 5 0 11
-10 14 -22 5 -19 8 -20 23 -7 15 12 17 12 9 0 -6 -11 -4 -13 8 -8 11 4 14 2
11 -7 -3 -8 0 -17 7 -22 8 -5 10 -3 4 7 -4 8 1 5 12 -6 11 -11 19 -23 17 -26
-2 -4 3 -9 11 -12 9 -4 12 -1 8 9 -3 9 6 4 22 -10 16 -15 24 -30 19 -37 -4 -8
-3 -9 4 -5 7 4 24 -5 39 -21 14 -15 23 -21 18 -13 -6 11 -3 10 12 -3 11 -9 23
-14 28 -10 4 5 5 2 1 -5 -4 -7 -12 -10 -17 -7 -5 4 -9 1 -9 -4 0 -6 9 -11 20
-11 11 0 20 -5 20 -11 0 -5 5 -7 10 -4 6 3 10 -1 10 -9 0 -9 5 -16 10 -16 6 0
10 -5 10 -11 0 -5 -5 -7 -12 -3 -7 4 -8 3 -4 -4 4 -6 14 -8 23 -5 11 4 14 3 9
-5 -4 -8 0 -12 11 -12 15 0 16 -2 3 -10 -9 -6 -10 -10 -3 -10 6 0 14 -8 17
-18 3 -9 16 -23 28 -31 l23 -14 -20 24 -20 24 23 -19 c12 -11 20 -26 18 -33
-5 -12 7 -18 28 -14 5 1 4 -4 -3 -13 -9 -11 -9 -16 0 -22 8 -5 9 -3 4 6 -5 9
-4 11 4 6 9 -6 9 -11 0 -22 -7 -9 -8 -14 -3 -13 5 1 16 1 24 0 13 -1 13 -2 0
-11 -12 -8 -12 -10 5 -10 17 0 17 -2 5 -10 -13 -8 -13 -10 1 -10 9 0 20 -7 23
-16 4 -10 2 -13 -7 -9 -6 4 -4 0 5 -8 14 -11 15 -16 5 -26 -9 -10 -8 -11 7 -5
13 5 17 4 12 -4 -4 -7 -2 -12 4 -12 6 0 9 -4 5 -9 -3 -6 2 -14 11 -19 10 -6
15 -16 11 -25 -3 -9 -1 -19 5 -23 7 -5 8 -2 3 6 -6 9 -4 11 4 6 7 -5 10 -11 7
-14 -3 -3 0 -12 7 -20 10 -13 9 -14 -3 -7 -8 4 -5 -2 8 -14 23 -22 30 -37 12
-26 -5 3 -10 1 -10 -4 0 -6 5 -11 11 -11 6 0 9 -7 5 -15 -3 -8 -1 -15 5 -15 6
0 9 -7 6 -14 -4 -11 -1 -13 11 -9 15 6 16 5 2 -12 -13 -17 -13 -18 1 -13 14 6
15 1 9 -27 -4 -19 -5 -34 -1 -33 28 3 33 -3 15 -18 -10 -8 -14 -13 -9 -11 6 3
15 -1 22 -8 10 -11 10 -15 0 -18 -9 -4 -9 -6 1 -6 7 -1 12 -15 12 -34 0 -18 6
-39 13 -46 10 -10 8 -11 -8 -6 -20 7 -20 6 -1 -9 11 -9 16 -16 10 -16 -5 0 -9
-16 -10 -35 0 -19 3 -35 8 -35 5 0 6 -4 3 -10 -3 -5 0 -10 7 -11 7 0 4 -4 -7
-9 l-20 -9 20 0 c17 -1 17 -3 5 -11 -10 -6 -11 -10 -2 -10 6 0 12 -5 12 -11 0
-5 -5 -7 -11 -3 -8 4 -8 0 0 -15 9 -16 9 -21 -1 -21 -9 0 -9 -3 2 -10 13 -9
13 -10 0 -10 -9 0 -11 -3 -5 -8 13 -9 13 -95 1 -104 -6 -4 -4 -14 5 -24 9 -11
9 -15 2 -10 -8 4 -13 2 -13 -4 0 -6 -4 -8 -10 -5 -5 3 -10 4 -10 0 0 -3 10
-10 23 -15 13 -5 16 -9 7 -9 -12 -1 -16 -15 -18 -57 -1 -31 -7 -64 -14 -72
-10 -12 -10 -14 0 -8 6 4 12 3 12 -3 0 -5 -5 -13 -10 -16 -6 -4 -8 -11 -5 -16
4 -5 3 -15 -2 -21 -4 -7 -8 -17 -9 -23 0 -5 -2 -16 -2 -23 -1 -8 -7 -10 -14
-6 -10 6 -10 4 0 -8 10 -13 10 -17 -4 -22 -13 -5 -14 -9 -4 -21 9 -10 9 -15 1
-15 -6 0 -11 -9 -11 -19 0 -11 -5 -23 -11 -26 -6 -4 -8 -14 -5 -22 3 -8 1 -11
-4 -8 -6 3 -10 -1 -10 -10 0 -10 -5 -13 -12 -9 -10 6 -10 4 0 -8 10 -13 10
-17 -4 -22 -10 -4 -14 -12 -10 -22 5 -12 2 -15 -11 -10 -14 6 -15 5 -6 -5 10
-10 9 -15 -5 -26 -9 -8 -11 -12 -4 -8 6 3 12 2 12 -3 0 -6 -7 -13 -16 -16 -8
-3 -12 -10 -9 -16 3 -5 1 -10 -4 -10 -6 0 -10 -4 -8 -9 1 -5 -7 -17 -18 -26
l-20 -17 20 6 c20 6 20 6 1 -9 -11 -8 -25 -15 -30 -15 -6 0 -4 -5 4 -10 13 -8
12 -10 -4 -10 -11 0 -16 -3 -13 -7 4 -3 -1 -12 -11 -20 -16 -12 -15 -13 3 -7
18 6 18 5 -3 -15 -12 -12 -19 -27 -16 -33 4 -7 2 -8 -4 -4 -11 6 -16 -5 -13
-26 0 -4 -6 -5 -14 -2 -10 4 -15 0 -15 -15 0 -15 -4 -19 -17 -14 -16 6 -16 5
-4 -11 11 -13 11 -16 1 -14 -7 2 -15 -3 -18 -11 -3 -9 0 -11 8 -6 8 5 11 4 6
-3 -3 -6 -15 -9 -26 -7 -12 2 -17 -1 -14 -10 3 -7 0 -16 -7 -21 -8 -5 -10 -3
-5 7 4 8 -2 3 -13 -9 -21 -25 -81 -41 -61 -17 10 13 -4 13 -57 1 -14 -3 -23 0
-23 7 0 8 -3 8 -12 -1 -9 -9 -15 -7 -25 6 -8 9 -12 12 -9 6 3 -7 -1 -14 -8
-17 -11 -4 -14 0 -11 16 4 21 4 21 -10 3 -9 -12 -15 -15 -15 -7 0 11 -3 11
-15 1 -13 -11 -14 -10 -10 2 4 10 -2 14 -20 14 -14 0 -25 -5 -25 -10 0 -6 -5
-4 -10 4 -7 11 -10 12 -10 2 0 -10 -4 -10 -15 2 -9 8 -23 12 -32 9 -10 -4 -14
-2 -10 4 8 12 -11 12 -30 0 -8 -5 -11 -1 -8 15 4 21 3 22 -9 6 -16 -22 -27
-23 -20 -3 5 12 -2 15 -30 15 -20 0 -36 5 -36 11 0 5 -4 8 -9 4 -5 -3 -13 0
-17 6 -4 8 -9 7 -15 -2 -7 -11 -9 -10 -9 4 0 16 -10 21 -37 18 -7 -1 -13 4
-13 11 0 9 -3 9 -10 -2 -6 -10 -10 -11 -10 -2 0 6 -7 12 -15 12 -8 0 -15 5
-15 11 0 6 -7 8 -16 5 -9 -3 -25 4 -38 17 -13 12 -34 31 -47 42 -18 16 -21 16
-10 2 12 -15 12 -17 -3 -11 -9 3 -16 13 -16 21 0 8 -4 12 -9 8 -5 -3 -16 2
-25 10 -8 9 -19 17 -23 18 -4 1 -7 6 -5 10 1 5 -2 6 -8 2 -5 -3 -10 -1 -10 5
0 6 -4 8 -10 5 -6 -3 -10 -1 -10 4 0 6 -7 11 -15 11 -8 0 -19 9 -25 20 -6 11
-15 18 -21 15 -5 -4 -9 -1 -9 5 0 6 -4 8 -10 5 -6 -4 -7 1 -3 11 4 12 3 15 -5
10 -7 -4 -12 -2 -12 3 0 6 -9 11 -20 11 -13 0 -20 7 -20 20 0 11 -6 19 -12 17
-7 -1 -12 5 -12 14 1 12 -4 15 -19 11 -12 -3 -18 -1 -14 5 7 11 -28 45 -37 36
-3 -4 -6 2 -6 13 0 11 -9 26 -19 34 -11 7 -17 18 -14 23 3 6 2 7 -4 4 -12 -8
-44 29 -46 53 -1 13 -5 16 -13 10 -15 -13 -26 0 -13 16 7 8 6 14 -2 20 -8 5
-9 3 -4 -6 5 -9 4 -11 -4 -6 -9 6 -9 11 1 24 9 11 9 14 1 9 -12 -8 -50 49 -45
66 1 5 -2 6 -8 2 -5 -3 -10 -1 -10 5 0 6 -5 8 -12 4 -10 -6 -10 -4 0 8 10 13
10 17 -2 21 -7 3 -21 19 -29 36 -9 17 -11 29 -6 26 5 -4 9 -1 9 4 0 6 -7 11
-15 11 -9 0 -12 6 -8 18 3 9 3 14 -2 10 -14 -13 -34 25 -24 44 6 11 5 19 -3
24 -7 5 -8 3 -3 -7 5 -8 4 -11 0 -6 -14 12 -17 49 -3 41 7 -4 8 -3 4 4 -4 7
-14 12 -22 12 -8 0 -14 5 -14 11 0 5 5 7 10 4 18 -11 11 4 -12 25 -12 11 -19
23 -15 26 3 4 -1 13 -9 22 -13 12 -13 16 -2 23 10 7 8 9 -6 9 -14 0 -17 6 -14
29 3 22 1 28 -11 23 -9 -3 -12 -1 -7 6 3 6 2 13 -4 17 -6 4 -8 11 -5 16 4 5 1
9 -5 9 -6 0 -9 4 -6 9 3 5 -1 11 -9 15 -8 3 -15 12 -15 21 0 8 -5 15 -11 15
-5 0 -7 4 -4 10 3 5 1 10 -5 10 -6 0 -14 8 -17 17 -10 25 -50 63 -57 55 -4 -3
-4 1 0 11 4 12 1 17 -10 17 -14 0 -18 6 -15 27 1 10 -30 25 -41 18 -5 -3 -7 0
-4 8 3 8 -3 20 -13 28 -16 13 -17 12 -4 -3 7 -10 11 -18 7 -18 -3 0 -15 15
-26 33 -11 17 -20 26 -20 19 0 -7 -12 0 -26 15 -15 15 -23 21 -18 13 6 -10 3
-9 -8 2 -12 13 -18 15 -22 6 -4 -7 -5 -4 -2 8 2 12 -2 21 -10 21 -7 0 -10 -5
-7 -11 4 -6 -1 -5 -10 3 -9 7 -14 18 -10 24 3 5 1 7 -4 4 -6 -4 -16 0 -23 8
-9 11 -17 12 -31 4 -11 -5 -19 -6 -18 -2 1 4 1 15 0 23 -1 13 -2 13 -11 0 -8
-12 -10 -12 -10 -1 0 9 -7 11 -21 8 -13 -3 -22 0 -26 10 -3 8 -13 13 -24 10
-13 -4 -19 0 -19 11 0 15 -2 15 -10 2 -5 -8 -10 -10 -10 -5 0 6 -8 11 -17 11
-21 1 -65 10 -94 19 -17 6 -20 4 -13 -6 6 -11 5 -12 -8 -2 -8 7 -18 10 -21 6
-4 -3 -7 -1 -7 5 0 6 -7 9 -15 6 -8 -4 -12 -11 -9 -18 3 -6 -2 -2 -10 8 -9 11
-16 15 -16 9 0 -6 -13 -9 -30 -7 -16 2 -32 -1 -35 -6 -8 -13 -25 -13 -25 1 0
5 4 8 8 5 5 -3 9 1 9 9 0 12 -3 12 -15 3 -13 -12 -32 -18 -59 -20 -7 -1 -13
-5 -13 -9 0 -5 -7 -6 -16 -2 -9 3 -20 0 -25 -8 -7 -11 -9 -11 -9 -1 0 15 -30
12 -48 -5 -7 -7 -18 -13 -25 -13 -6 0 -2 7 9 16 18 15 18 15 -2 5 -12 -6 -25
-7 -29 -3 -5 4 -5 2 -1 -5 3 -6 2 -14 -4 -18 -5 -3 -10 -1 -10 5 0 6 -5 8 -10
5 -6 -4 -8 -10 -6 -14 3 -4 -9 -6 -25 -5 -24 2 -29 -1 -24 -13 4 -12 2 -13 -8
-5 -18 15 -39 0 -31 -23 5 -13 4 -16 -4 -11 -7 4 -12 2 -12 -4 0 -6 -4 -8 -10
-5 -6 4 -7 -1 -3 -11 4 -11 2 -15 -4 -11 -6 4 -10 -3 -9 -16 1 -12 -5 -27 -13
-33 -11 -9 -11 -15 -1 -35 13 -23 12 -23 -5 -9 -17 14 -17 14 -7 -6 6 -12 7
-26 2 -34 -5 -8 -6 -18 -3 -22 2 -5 -1 -16 -9 -25 -8 -10 -8 -14 -1 -10 6 4
15 2 19 -4 4 -8 3 -9 -5 -5 -6 4 -14 0 -17 -8 -3 -9 -11 -13 -17 -9 -6 3 -7 1
-3 -6 4 -6 12 -9 17 -6 5 4 9 1 9 -4 0 -6 -5 -11 -10 -11 -7 0 -7 -6 -1 -19 8
-14 7 -22 -3 -30 -16 -13 -14 -50 3 -60 10 -6 9 -10 -4 -15 -9 -3 -15 -12 -12
-20 3 -7 0 -19 -6 -25 -9 -9 -7 -11 8 -6 17 6 18 5 5 -7 -16 -13 -20 -114 -5
-137 3 -6 2 -11 -2 -11 -5 0 -9 -9 -9 -20 0 -11 6 -20 14 -20 7 0 10 -5 7 -10
-4 -6 -10 -8 -14 -5 -5 2 -6 -7 -3 -20 2 -14 8 -25 13 -25 5 0 9 -5 9 -11 0
-5 -4 -8 -8 -5 -5 3 -9 -1 -9 -9 0 -8 4 -12 8 -10 4 3 10 -2 13 -11 3 -8 2
-12 -4 -9 -6 3 -10 -1 -10 -10 0 -9 4 -14 8 -11 4 2 8 -4 8 -14 0 -11 -5 -16
-11 -12 -6 4 -3 -1 7 -10 11 -10 14 -19 8 -23 -5 -3 -10 -11 -10 -16 0 -6 5
-7 11 -3 8 5 10 -1 7 -20 -3 -15 -1 -26 6 -26 6 0 6 -4 -2 -9 -11 -6 -10 -11
3 -25 9 -9 14 -23 11 -31 -3 -8 0 -15 7 -15 9 0 8 -3 -1 -9 -11 -6 -10 -11 3
-25 12 -12 13 -16 3 -16 -9 0 -9 -3 -2 -8 6 -4 16 -18 23 -32 l12 -25 -21 25
-21 25 12 -27 c7 -16 16 -28 21 -28 5 0 7 -4 3 -9 -3 -5 0 -15 7 -23 13 -14
20 -33 21 -55 0 -7 4 -13 9 -13 5 0 8 -8 7 -17 -3 -32 1 -44 11 -38 6 3 10 1
10 -6 0 -6 8 -18 18 -26 16 -14 16 -14 -2 -9 -16 6 -17 4 -6 -9 7 -8 17 -12
24 -8 6 4 5 -1 -3 -10 -9 -11 -10 -17 -2 -17 6 0 11 -7 11 -15 0 -8 6 -15 13
-15 9 0 9 -2 -1 -9 -10 -6 -8 -10 9 -14 20 -5 21 -8 8 -24 -7 -10 -9 -15 -5
-11 12 10 48 -33 41 -49 -3 -9 0 -11 7 -7 7 5 9 2 5 -9 -4 -11 -1 -15 12 -12
15 3 18 -1 13 -17 -4 -16 -1 -20 10 -16 11 5 14 1 10 -17 -2 -12 1 -26 7 -29
7 -5 9 0 5 11 -4 14 -3 14 7 -2 6 -11 21 -31 33 -45 20 -23 20 -23 1 -10 -20
14 -20 14 -2 -7 11 -12 24 -20 30 -19 7 2 9 1 5 -1 -13 -8 -9 -23 6 -23 7 0
19 -7 26 -15 11 -13 10 -15 -6 -10 -13 5 -12 2 4 -7 12 -8 19 -18 15 -22 -4
-4 -3 -7 2 -6 24 5 33 -2 29 -22 -2 -13 -2 -17 2 -10 3 6 10 12 15 12 6 0 7
-4 4 -10 -3 -5 -1 -10 5 -10 6 0 8 -4 5 -10 -3 -5 1 -10 9 -10 9 0 16 -5 16
-11 0 -5 5 -7 11 -3 9 5 10 -2 6 -22 -3 -16 -4 -23 -1 -16 5 10 11 9 27 -5 21
-18 21 -18 7 2 -11 15 -8 14 12 -4 15 -13 25 -28 21 -34 -3 -5 3 -6 16 -2 15
5 19 3 16 -7 -3 -8 4 -18 17 -24 13 -6 17 -9 10 -7 -7 1 -10 -2 -6 -8 3 -6 15
-8 25 -6 14 4 19 1 17 -10 -2 -9 4 -18 12 -20 13 -4 13 -3 0 6 -12 8 -12 11
-1 11 7 0 31 -19 53 -42 22 -24 37 -37 34 -30 -4 6 -2 12 3 12 6 0 11 -4 11
-10 0 -5 9 -10 21 -10 11 0 17 -4 14 -10 -3 -5 1 -11 9 -11 9 -1 21 -2 27 -3
5 0 19 -12 30 -26 15 -20 18 -21 12 -5 -6 18 -5 18 10 6 9 -7 17 -21 18 -30 0
-12 2 -12 8 3 7 18 8 18 14 2 4 -9 11 -15 15 -12 4 3 16 -6 27 -20 14 -19 21
-22 31 -13 11 9 14 8 14 -2 0 -11 2 -11 10 1 8 12 10 12 10 -5 0 -17 2 -17 10
-5 8 12 10 12 10 1 0 -8 7 -11 20 -8 11 3 20 1 20 -5 0 -5 6 -6 13 -2 8 5 7 2
-2 -9 -13 -16 -12 -17 13 -7 15 5 25 7 23 2 -3 -4 2 -14 11 -22 14 -13 15 -12
9 3 -3 9 -2 17 3 17 6 0 10 -5 10 -11 0 -5 5 -7 12 -3 7 5 9 2 6 -8 -5 -12 0
-14 23 -12 21 3 28 0 23 -8 -5 -7 -2 -9 8 -6 8 4 21 2 29 -2 8 -6 16 -4 21 3
6 9 10 9 17 -2 7 -11 9 -11 14 0 3 9 6 7 6 -6 1 -17 3 -18 11 -5 9 13 12 13
23 -1 15 -19 27 -21 46 -6 11 9 13 9 8 1 -4 -7 0 -15 9 -18 8 -3 12 -2 9 4 -3
6 -1 10 4 10 6 0 11 -5 11 -10 0 -6 15 -9 35 -7 20 3 35 0 35 -6 0 -6 3 -7 7
-4 3 4 13 1 21 -6 13 -10 14 -9 8 1 -6 10 -3 13 10 12 11 -1 21 -1 24 0 19 7
39 7 34 -1 -3 -5 -10 -6 -16 -3 -7 4 -8 2 -4 -4 5 -8 13 -9 25 -2 12 6 22 5
31 -3 9 -8 11 -8 7 -1 -4 7 0 15 9 18 12 5 15 2 10 -11 -6 -17 -5 -17 8 0 10
13 15 15 18 5 4 -11 8 -10 21 1 14 11 17 11 17 0 0 -11 2 -11 10 1 8 13 10 12
10 -4 0 -19 0 -19 14 -1 13 17 14 17 23 1 9 -16 11 -16 16 -2 4 9 11 16 17 16
6 0 8 -6 4 -12 -4 -7 3 -4 16 7 13 11 20 14 15 6 -6 -11 -4 -13 7 -8 9 3 21 0
28 -6 10 -9 9 -6 0 13 -12 23 -12 24 3 11 13 -10 20 -11 31 -2 11 10 17 8 26
-6 9 -15 11 -15 6 -1 -6 20 17 31 34 15 10 -9 11 -9 5 2 -6 11 -4 13 8 8 9 -3
18 -1 21 6 3 9 5 9 5 0 1 -7 6 -13 12 -13 5 0 8 3 6 8 -3 4 6 8 19 8 15 1 21
-2 17 -10 -4 -6 1 -5 10 3 9 7 17 10 17 5 0 -5 5 -2 10 6 6 10 10 11 10 3 0
-7 5 -13 11 -13 5 0 7 5 4 10 -3 6 -1 10 5 10 6 0 9 4 5 9 -3 5 0 13 6 17 7 4
9 3 6 -3 -4 -6 2 -13 13 -16 11 -3 23 0 27 5 4 7 1 8 -7 3 -8 -5 -11 -4 -6 3
3 5 20 8 36 6 24 -4 30 -1 31 13 0 10 3 13 6 6 2 -7 9 -13 14 -13 6 0 7 5 4
10 -3 5 3 10 15 10 12 0 19 4 16 9 -4 5 7 7 23 5 16 -3 32 0 36 5 4 7 -1 9
-12 5 -16 -5 -16 -4 1 6 15 10 20 9 27 -1 6 -9 9 -10 9 -2 0 15 28 43 43 43 7
0 6 -4 -3 -10 -10 -7 -11 -10 -2 -10 7 0 15 7 19 16 3 8 12 13 19 10 13 -5 18
5 15 29 -1 6 6 1 14 -9 14 -19 20 -12 16 16 0 4 6 5 14 2 8 -4 15 -1 15 4 0 6
9 9 21 7 18 -4 19 -2 7 12 -12 15 -11 15 12 3 23 -12 24 -12 12 3 -12 14 -11
16 8 12 16 -3 20 0 16 10 -3 8 0 14 7 12 7 -1 11 4 9 11 -1 8 2 11 7 7 6 -3 8
-13 5 -23 -2 -9 1 -7 7 6 7 13 18 21 26 18 8 -3 11 -1 8 4 -3 6 -2 10 4 10 6
0 7 8 4 18 -6 15 -5 16 12 2 17 -14 18 -13 13 8 -4 12 -2 20 2 17 5 -3 16 2
24 11 9 8 16 11 16 5 0 -6 5 -11 10 -11 6 0 10 9 10 21 0 15 5 19 15 15 13 -5
14 -2 4 15 -10 19 -9 20 10 9 13 -7 21 -7 21 -1 0 6 7 7 17 4 10 -4 14 -2 9 5
-3 6 -1 14 5 18 7 4 9 3 5 -4 -3 -6 -2 -13 3 -16 5 -3 11 1 15 9 3 8 10 15 16
15 6 0 8 -4 5 -10 -3 -6 1 -7 9 -4 9 3 16 11 16 18 0 6 5 4 10 -4 9 -13 10
-13 10 0 0 9 3 11 8 5 9 -13 35 -18 27 -5 -3 5 -1 10 4 10 6 0 11 -5 11 -10 0
-6 6 -5 14 2 8 7 12 16 9 20 -2 4 3 5 11 2 9 -3 14 -10 11 -14 -3 -5 0 -12 7
-16 7 -4 10 -4 6 1 -4 4 -3 14 3 22 10 11 15 11 27 1 13 -11 14 -11 7 1 -6 11
-3 13 13 9 16 -5 19 -2 15 11 -5 13 -2 12 18 -4 14 -12 19 -14 11 -4 -10 14
-9 17 8 22 12 3 18 1 14 -5 -4 -6 1 -6 13 1 11 6 24 7 28 3 5 -4 5 -2 2 4 -4
7 0 15 9 18 23 9 24 8 18 -11 -3 -10 0 -8 8 5 11 18 16 20 27 10 11 -11 12
-10 6 0 -5 9 -1 12 11 10 12 -2 18 2 16 11 -3 12 0 12 12 1 15 -11 20 -7 17
13 -2 15 18 6 22 -10 3 -12 5 -10 6 7 1 20 3 22 11 10 9 -13 10 -13 10 0 0 13
1 13 10 0 8 -13 10 -12 10 4 0 11 3 16 7 13 3 -4 13 -1 21 6 13 10 14 9 7 -3
-4 -8 2 -4 15 8 13 14 30 22 40 19 14 -4 17 0 13 12 -4 9 -3 13 2 9 11 -10 47
11 40 22 -3 6 1 7 9 4 9 -3 13 -11 9 -17 -3 -6 -1 -7 6 -3 6 4 9 12 6 17 -4 5
-1 9 5 9 6 0 8 5 4 13 -5 7 0 6 11 -3 11 -9 16 -10 11 -2 -4 7 -1 12 8 12 9 0
16 5 16 11 0 8 4 8 14 0 11 -9 14 -8 12 6 0 12 5 17 17 17 15 -2 16 1 5 14 -7
9 -8 13 -2 9 12 -7 74 19 86 37 4 5 4 14 2 18 -3 4 2 5 10 2 11 -4 16 0 16 10
0 10 11 19 31 23 22 4 27 8 17 14 -10 7 -8 9 7 10 11 1 24 1 29 0 5 -1 4 4 -2
12 -14 17 -6 28 16 20 10 -4 13 -2 8 5 -4 7 -1 12 8 12 9 0 13 6 10 14 -3 8 3
16 16 19 15 4 19 10 14 19 -6 10 -3 9 10 -1 9 -8 16 -10 15 -5 -4 21 2 34 16
34 8 0 15 5 15 11 0 5 -5 7 -12 3 -7 -4 -8 -3 -4 4 4 6 13 9 20 6 8 -3 17 0
22 7 5 8 3 10 -6 4 -9 -5 -11 -4 -6 3 4 7 14 12 21 12 8 0 12 6 9 14 -3 8 4
20 15 28 12 8 18 18 13 23 -4 4 2 5 12 1 16 -5 17 -4 7 8 -11 13 -9 15 8 11
15 -3 18 0 14 13 -3 9 -3 14 2 10 12 -12 45 35 34 49 -12 14 6 27 24 17 7 -5
6 0 -3 11 -9 11 -10 16 -2 11 7 -4 12 -2 12 4 0 6 4 8 10 5 6 -4 7 1 3 11 -5
13 -3 15 8 9 8 -4 11 -5 7 0 -4 4 -2 15 5 23 10 13 9 14 -2 7 -10 -6 -12 -4
-7 4 5 7 15 10 23 6 13 -4 14 -3 3 10 -10 12 -9 16 4 21 10 4 15 13 12 20 -3
7 3 18 12 23 14 8 14 11 2 11 -12 0 -11 3 3 11 9 6 14 15 11 21 -5 7 -1 9 9 5
9 -3 19 -1 23 5 4 6 3 8 -4 4 -6 -3 -13 -2 -17 4 -3 5 -1 10 5 10 7 0 10 7 7
15 -4 8 -1 17 5 21 7 5 8 2 3 -6 -5 -9 -4 -11 4 -6 9 6 9 11 0 22 -7 9 -8 14
-3 12 5 -2 10 2 12 7 2 6 10 14 18 18 8 5 12 13 8 18 -3 5 2 21 11 36 9 14 12
22 6 19 -6 -4 -11 -2 -11 3 0 6 5 11 11 11 7 0 9 10 7 25 -3 13 -1 22 3 19 4
-2 13 4 19 15 7 14 7 22 -1 27 -8 4 -7 9 2 15 9 5 13 27 13 60 0 37 2 46 7 31
5 -12 10 -22 12 -22 8 0 2 76 -7 82 -7 5 -3 8 9 8 17 0 17 2 5 10 -11 7 -11
10 -2 10 10 0 10 5 1 22 -10 18 -9 20 7 14 18 -6 18 -5 0 9 -12 9 -15 15 -7
15 8 0 11 6 7 16 -3 8 -2 12 4 9 6 -3 10 -1 10 4 0 6 -6 11 -12 11 -9 0 -8 4
2 10 10 6 11 10 3 10 -7 0 -13 5 -13 11 0 5 4 8 9 5 5 -3 12 1 15 10 4 10 2
13 -6 8 -8 -5 -9 -2 -5 10 4 10 7 27 7 37 0 13 4 18 12 13 7 -4 8 -3 4 5 -4 6
-11 9 -16 6 -4 -3 -10 2 -13 10 -4 9 -1 12 7 9 10 -4 12 2 9 20 -3 14 -10 26
-17 27 -6 0 -3 4 8 8 17 7 17 8 2 24 -16 15 -16 17 -1 17 14 0 14 2 -1 25 -15
23 -15 25 0 19 14 -5 15 -2 6 20 -5 14 -7 26 -3 26 4 0 -2 7 -13 15 -14 11
-15 14 -4 15 13 0 13 1 0 10 -11 7 -11 10 -2 10 9 0 10 5 3 17 -5 10 -5 26 0
41 6 16 6 21 -2 16 -8 -4 -9 1 -4 16 5 17 4 21 -6 15 -11 -6 -12 -5 -1 6 17
18 15 29 -5 29 -15 0 -14 2 3 16 18 14 18 15 -6 8 -22 -6 -23 -5 -11 10 11 13
11 16 1 16 -8 0 -10 3 -7 7 4 3 2 12 -4 20 -6 7 -8 13 -3 13 5 0 2 5 -6 10
-10 6 -11 10 -2 10 6 0 12 7 12 15 0 8 -4 15 -9 15 -5 0 -12 7 -15 16 -6 15
-4 15 11 3 17 -13 17 -13 0 7 -9 11 -14 24 -10 27 3 4 0 7 -8 7 -11 0 -11 2 1
10 13 8 12 10 -3 10 -10 0 -15 4 -12 10 7 11 -19 53 -27 45 -2 -3 -5 2 -5 10
0 8 5 11 10 8 5 -3 8 0 5 8 -3 8 -10 14 -15 14 -21 0 -26 14 -12 32 9 11 10
14 2 9 -9 -5 -13 0 -13 13 0 12 -4 21 -10 21 -5 0 -9 3 -9 7 3 21 -2 33 -13
27 -6 -4 -8 -3 -5 3 4 6 0 16 -8 23 -11 9 -12 16 -5 25 7 9 5 16 -7 26 -17 13
-17 13 -3 -6 14 -19 14 -19 -3 -6 -11 9 -14 18 -8 25 11 13 -12 50 -24 38 -5
-4 -5 1 -2 11 4 11 1 17 -9 17 -8 0 -13 4 -10 9 3 5 -1 12 -10 15 -14 5 -14 9
-3 23 10 12 10 14 2 9 -21 -12 -36 3 -21 22 7 9 9 13 3 10 -11 -6 -48 30 -53
53 -2 7 -8 16 -13 17 -19 7 -38 33 -33 46 3 8 -3 16 -15 19 -15 3 -19 10 -15
21 4 9 3 16 -2 15 -5 -1 -16 -1 -24 0 -13 1 -13 2 0 11 13 8 12 10 -2 10 -10
0 -18 5 -18 11 0 5 -4 7 -10 4 -6 -3 -7 1 -4 9 4 9 1 16 -6 16 -17 0 -51 40
-44 51 8 14 -10 11 -25 -3 -7 -7 -12 -8 -11 -3 6 29 -1 44 -17 38 -11 -4 -14
-3 -9 5 4 7 2 12 -6 12 -11 0 -10 2 0 9 10 6 8 10 -10 16 -12 4 -26 7 -30 6
-5 -1 -8 5 -8 13 0 7 -8 20 -17 27 -16 13 -17 12 -4 -4 8 -9 11 -20 7 -24 -3
-3 -6 -2 -6 3 0 5 -10 20 -21 34 -11 14 -18 19 -14 13 9 -19 -10 -16 -26 4 -8
10 -9 14 -2 10 6 -4 14 -4 17 1 2 4 -5 9 -17 9 -11 1 -25 9 -30 18 -5 10 -16
14 -28 10 -13 -5 -19 -2 -17 7 2 7 -3 12 -9 11 -7 -2 -13 5 -13 15 0 13 -2 14
-9 4 -7 -11 -9 -11 -14 2 -4 10 -13 13 -24 9 -16 -6 -16 -5 -4 10 12 15 11 17
-10 15 -15 -2 -23 2 -22 9 2 7 0 12 -5 12 -25 -4 -42 2 -36 14 6 9 3 8 -8 -1
-14 -12 -19 -9 -33 15 -9 15 -14 19 -10 9 5 -16 3 -17 -10 -6 -8 7 -13 16 -10
19 2 4 -2 8 -10 8 -8 0 -12 -3 -10 -7 2 -4 -2 -7 -10 -7 -8 0 -12 4 -9 9 3 4
-2 8 -11 8 -9 0 -14 4 -11 8 3 5 -5 8 -17 7 -22 -2 -76 22 -89 40 -4 6 -8 6
-8 1 0 -5 -8 -2 -17 5 -15 12 -16 12 -8 -1 5 -10 1 -8 -13 4 -12 10 -28 16
-37 13 -10 -4 -15 -1 -15 11 0 15 -2 15 -10 2 -8 -12 -12 -13 -19 -2 -4 8 -11
13 -15 13 -34 -5 -56 1 -50 12 5 7 0 6 -11 -3 -10 -8 -16 -10 -12 -4 4 7 0 14
-8 18 -8 3 -15 0 -15 -6 0 -7 -5 -6 -15 2 -8 7 -22 9 -31 6 -12 -4 -15 -2 -11
9 4 8 1 17 -5 21 -7 4 -8 3 -4 -4 5 -8 -1 -12 -14 -12 -14 0 -19 4 -14 12 5 7
2 9 -8 5 -9 -3 -27 1 -42 8 -15 8 -24 10 -21 5 4 -6 1 -10 -4 -10 -6 0 -11 4
-11 8 0 4 -12 9 -27 10 -15 1 -30 8 -35 15 -6 9 -8 8 -8 -3 0 -12 -2 -12 -8
-2 -5 7 -21 15 -36 18 -17 3 -25 1 -21 -6 3 -6 0 -7 -9 -4 -9 3 -13 11 -9 17
4 6 0 8 -10 4 -10 -4 -20 0 -26 11 -10 15 -10 15 -11 -2 0 -20 0 -20 -16 0 -8
10 -13 13 -9 7 3 -7 1 -13 -4 -13 -6 0 -11 6 -11 14 0 10 -7 12 -22 8 -16 -4
-19 -2 -13 8 5 9 4 11 -3 6 -6 -4 -22 -1 -34 6 -27 14 -50 19 -43 9 2 -4 -2
-8 -10 -8 -8 0 -12 4 -9 9 3 4 -5 8 -18 8 -13 0 -30 6 -37 13 -8 6 -11 7 -8 1
3 -6 0 -11 -8 -11 -8 0 -12 4 -9 9 3 4 -6 8 -20 8 -14 0 -26 5 -26 11 0 8 -4
8 -14 0 -10 -9 -16 -8 -26 4 -7 8 -16 12 -21 9 -5 -3 -9 0 -9 7 0 9 -3 9 -14
0 -11 -9 -16 -9 -22 0 -5 8 -3 9 7 4 12 -8 12 -6 0 8 -15 18 -26 23 -16 7 3
-5 -1 -10 -9 -10 -9 0 -16 5 -16 10 0 6 -7 10 -15 10 -8 0 -15 -5 -15 -10 0
-6 -10 -2 -22 9 -11 11 -26 17 -32 14 -20 -13 -46 -10 -59 6 -11 14 -10 15 7
1 12 -9 17 -10 12 -3 -4 7 -16 18 -28 24 -14 8 -18 8 -14 0 5 -7 1 -9 -8 -5
-9 3 -16 10 -16 16 0 5 -4 7 -9 3 -6 -3 -15 3 -21 12 -11 17 -11 17 -6 1 3
-10 2 -18 -3 -18 -5 0 -11 9 -14 21 -3 12 -10 18 -15 15 -5 -3 -15 1 -22 10
-7 8 -20 12 -29 9 -9 -4 -22 3 -33 17 -10 13 -18 18 -18 11 0 -6 -9 -9 -21 -6
-16 4 -17 8 -7 14 9 6 6 9 -12 10 -14 1 -29 1 -34 0 -5 -1 -3 6 4 16 8 10 10
15 5 10 -4 -4 -18 1 -29 10 -20 17 -20 17 -7 0 12 -15 12 -17 -3 -11 -9 3 -16
13 -16 22 0 8 -3 13 -6 9 -4 -3 -13 1 -21 9 -9 8 -22 13 -30 10 -8 -3 -11 -1
-8 4 3 6 0 10 -7 10 -9 0 -9 3 2 10 8 5 10 10 5 10 -6 0 -17 -6 -24 -12 -11
-10 -13 -10 -7 0 4 6 2 12 -4 12 -7 0 -10 7 -7 14 4 11 1 13 -10 9 -12 -5 -14
-3 -8 7 6 10 4 12 -9 7 -13 -5 -17 -3 -13 7 4 9 -6 20 -26 30 -18 8 -28 16
-24 16 12 0 -20 30 -32 30 -6 0 -11 7 -11 16 0 8 -4 12 -10 9 -5 -3 -10 1 -10
10 0 9 -4 14 -9 10 -12 -7 -42 35 -34 48 4 6 0 8 -10 4 -11 -4 -14 -2 -11 7 3
8 -4 16 -16 19 -12 3 -19 10 -16 16 4 5 -2 15 -13 21 -11 6 -18 16 -15 23 3 8
-5 19 -18 26 -18 9 -19 11 -3 6 19 -5 19 -4 3 9 -10 7 -18 19 -18 27 0 11 -2
11 -10 -1 -8 -12 -10 -11 -10 8 0 12 -6 22 -12 22 -9 0 -8 4 2 10 11 7 11 10
2 10 -8 0 -10 5 -6 13 6 8 3 8 -9 -1 -14 -12 -16 -11 -12 7 2 12 -1 21 -6 21
-6 0 -7 5 -4 10 3 6 1 10 -5 10 -6 0 -8 5 -5 10 3 6 1 10 -5 10 -6 0 -8 5 -5
10 3 6 1 10 -5 10 -6 0 -9 4 -6 9 3 5 -2 12 -11 15 -12 5 -14 9 -5 18 9 9 8
17 -6 32 -25 29 -47 80 -30 70 8 -5 7 0 -2 11 -8 10 -15 21 -15 24 0 3 -4 5
-8 3 -4 -1 -2 8 4 20 12 22 11 22 -6 8 -14 -11 -17 -11 -11 -1 5 8 3 17 -5 22
-11 7 -11 9 -1 9 7 0 10 5 7 10 -4 6 -11 7 -17 4 -5 -4 -2 6 8 22 14 22 15 26
3 17 -13 -11 -15 -9 -11 17 3 20 0 30 -8 30 -9 0 -9 4 1 17 8 10 9 14 2 10 -8
-5 -11 2 -11 20 1 45 -1 55 -11 49 -11 -7 -9 13 2 32 6 8 2 12 -9 12 -16 0
-16 1 2 16 14 12 15 14 3 11 -13 -4 -15 -1 -11 16 3 12 10 25 16 29 7 5 4 8
-6 8 -11 0 -15 5 -12 15 4 8 11 12 18 8 6 -3 2 3 -8 15 -11 12 -15 22 -9 22 5
0 8 19 6 42 -2 26 2 45 9 50 10 6 10 8 1 8 -15 0 -14 52 1 62 6 4 3 10 -7 14
-17 6 -17 7 0 21 17 14 17 14 -1 8 -20 -6 -20 -6 0 16 11 14 13 19 4 14 -11
-6 -10 -3 2 11 17 19 17 21 0 38 -16 16 -16 17 3 10 18 -7 19 -6 5 11 -8 10
-10 16 -4 12 7 -4 14 0 17 7 4 9 -1 17 -11 19 -14 4 -13 5 3 6 17 1 18 3 5 11
-13 8 -12 10 4 10 15 0 16 3 7 14 -9 11 -9 16 0 22 8 5 9 3 4 -6 -5 -9 -4 -11
4 -6 6 4 8 13 4 19 -12 19 -12 38 -1 31 7 -5 9 2 6 20 -4 21 -3 24 9 15 11 -9
12 -9 8 3 -4 9 1 18 10 22 12 4 14 10 6 23 -6 12 -5 25 4 43 7 14 11 33 10 42
-2 11 2 15 13 11 12 -5 14 -2 9 11 -6 14 -3 17 8 12 10 -3 13 -2 10 5 -4 5 -1
17 7 26 11 15 11 16 -5 10 -11 -4 -16 -3 -12 3 3 6 13 10 21 10 8 0 12 5 9 10
-3 6 -1 10 4 10 6 0 11 5 11 11 0 5 -6 7 -12 4 -7 -4 -2 3 12 15 14 12 20 19
13 16 -6 -4 -15 -1 -19 5 -4 8 -3 9 4 5 7 -4 12 -2 12 3 0 6 6 10 13 8 6 -1
11 4 10 11 -2 6 2 12 8 12 5 0 7 4 4 10 -3 5 6 22 22 36 15 15 19 20 8 13 -17
-12 -17 -10 3 18 21 30 54 60 38 35 -3 -6 -2 -13 3 -16 11 -7 9 13 -3 33 -6
10 -5 12 3 7 7 -4 15 2 20 16 6 14 10 17 11 8 1 -9 5 -6 10 8 5 12 17 22 27
22 15 0 15 2 -3 15 -18 14 -18 14 3 10 17 -3 21 0 18 17 -4 17 -2 19 7 10 18
-18 33 -15 18 3 -11 13 -10 14 4 9 10 -4 16 -1 16 7 0 11 2 11 9 0 8 -12 12
-12 25 -2 15 13 20 9 17 -14 -1 -5 5 -2 12 8 15 17 33 24 23 8 -7 -10 20 -9
30 2 4 4 16 -1 26 -10 18 -16 18 -16 12 3 -7 17 -6 17 9 5 12 -10 17 -10 17
-2 0 8 6 7 16 -4 10 -10 24 -13 36 -9 14 4 18 2 14 -5 -9 -14 7 -14 20 -1 8 8
15 5 25 -7 13 -17 13 -17 -6 -3 -19 14 -19 14 -6 -3 11 -14 17 -15 28 -5 11 9
16 9 24 -3 7 -12 9 -12 9 1 0 13 1 13 10 0 9 -13 10 -13 10 0 0 9 3 11 8 5 4
-6 26 -17 49 -24 23 -8 40 -17 38 -21 -2 -4 3 -7 11 -7 9 0 13 6 9 16 -3 9 5
3 18 -13 16 -19 26 -25 31 -18 5 9 14 7 32 -4 13 -9 24 -13 24 -8 0 4 7 -1 15
-12 14 -19 14 -19 15 1 0 16 2 17 9 5 6 -8 7 -19 3 -25 -3 -5 1 -4 10 3 13 10
17 10 22 -3 3 -9 11 -13 18 -9 8 5 9 2 4 -12 -6 -15 -5 -17 5 -6 19 18 34 15
18 -4 -12 -15 -11 -16 10 -9 20 6 23 5 17 -10 -5 -15 -4 -16 8 -6 8 7 16 8 18
4 1 -4 17 -16 33 -25 17 -10 29 -22 28 -27 -2 -6 4 -8 12 -5 8 4 17 -1 21 -10
3 -9 10 -13 15 -10 5 3 9 0 9 -5 0 -6 7 -11 15 -11 9 0 20 -10 25 -22 5 -13 9
-17 9 -10 1 10 5 10 17 -2 8 -9 24 -21 35 -26 10 -6 19 -18 19 -28 0 -15 2
-15 10 -2 8 12 10 10 10 -10 0 -20 2 -22 10 -10 8 13 10 12 10 -3 0 -14 5 -17
23 -12 12 3 18 3 12 -2 -12 -10 -16 -45 -5 -38 5 3 11 1 15 -5 4 -6 11 -8 16
-5 5 3 6 -2 2 -11 -4 -11 -2 -15 4 -11 6 4 19 -3 29 -16 19 -21 19 -21 -1 -7
-13 9 -11 4 5 -12 14 -14 29 -23 34 -20 5 3 6 0 2 -6 -4 -7 4 -23 19 -36 15
-14 27 -28 28 -33 1 -4 6 -7 11 -5 5 2 3 -5 -5 -14 -12 -16 -12 -17 4 -11 11
4 16 3 12 -3 -3 -6 0 -13 9 -16 9 -3 12 -12 9 -22 -5 -11 -2 -14 9 -9 11 4 15
0 14 -11 -2 -9 7 -25 18 -35 12 -10 14 -16 6 -12 -8 4 -5 -2 8 -14 15 -13 19
-22 11 -27 -8 -4 -4 -11 12 -20 13 -7 18 -13 11 -14 -10 0 -10 -3 0 -14 7 -8
18 -11 23 -8 6 3 4 -2 -4 -11 -8 -11 -9 -17 -3 -17 7 0 9 -7 5 -17 -4 -10 -2
-14 5 -9 6 4 16 -3 23 -16 11 -21 11 -22 -4 -9 -25 20 -21 5 6 -20 12 -12 16
-19 10 -15 -7 4 -13 2 -13 -3 0 -6 5 -11 11 -11 6 0 9 -6 6 -14 -3 -8 1 -17 9
-20 9 -3 13 -10 9 -15 -3 -5 0 -13 6 -17 8 -4 7 -9 -2 -15 -11 -7 -10 -9 4 -9
10 0 17 -8 17 -18 0 -10 8 -28 17 -41 12 -18 13 -22 2 -17 -8 4 -6 1 3 -7 12
-9 14 -17 8 -25 -6 -7 -7 -10 -4 -7 11 7 36 -25 30 -40 -3 -10 0 -12 11 -8 11
4 14 2 9 -5 -4 -7 -2 -12 4 -12 6 0 8 -4 5 -10 -3 -5 -1 -10 4 -10 6 0 10 -6
9 -12 -2 -7 4 -12 13 -12 11 1 15 -5 12 -17 -3 -11 0 -19 6 -19 6 0 11 -10 11
-22 0 -19 2 -20 10 -8 9 13 10 13 11 0 1 -8 1 -19 0 -24 -1 -5 5 -6 13 -3 16
6 30 -19 19 -36 -4 -7 1 -6 10 2 15 12 17 11 17 -3 0 -8 12 -23 28 -33 15 -10
30 -22 34 -28 5 -6 8 -6 8 0 0 6 8 -1 16 -15 11 -18 14 -20 10 -5 -5 18 -4 18
14 -3 11 -13 24 -20 30 -17 7 4 14 -2 17 -13 3 -11 12 -23 20 -27 14 -5 14 -3
2 12 -12 15 -11 15 14 -1 15 -10 27 -22 27 -27 0 -5 7 -9 16 -9 8 0 12 -4 9
-10 -3 -5 -1 -10 4 -10 6 0 11 5 11 12 0 6 7 3 16 -8 8 -10 13 -12 9 -4 -4 8
1 6 9 -4 9 -11 16 -16 16 -10 0 5 5 1 11 -9 8 -14 14 -16 25 -6 11 9 14 8 14
-2 0 -11 2 -11 10 1 6 10 10 11 10 2 0 -6 3 -11 8 -11 20 3 32 -2 26 -12 -4
-7 1 -7 16 1 15 8 20 8 16 1 -5 -7 2 -11 18 -11 14 0 26 -6 26 -12 0 -10 3 -9
9 1 6 9 10 10 16 2 5 -9 11 -9 23 1 9 7 13 8 10 2 -5 -7 17 -9 65 -8 40 1 72
3 72 4 0 1 12 3 28 4 15 1 27 -1 27 -4 0 -9 49 -5 57 5 5 4 3 5 -4 1 -6 -3
-14 -2 -18 3 -6 11 27 7 47 -5 6 -4 8 -3 5 2 -3 6 3 16 15 23 11 7 17 8 13 2
-3 -6 1 -11 10 -11 10 0 15 6 12 13 -3 7 3 13 14 13 14 0 16 -3 6 -16 -6 -8 2
-4 17 10 16 14 26 20 22 13 -3 -6 -1 -15 5 -19 8 -4 9 -3 5 4 -4 7 -2 12 4 12
6 0 9 4 6 9 -3 5 1 12 10 15 8 3 12 2 9 -4 -10 -17 7 -11 22 8 8 9 11 11 7 3
-5 -10 -3 -12 5 -7 9 6 9 11 0 22 -10 12 -9 13 6 8 14 -6 16 -4 10 6 -6 10 -4
12 8 7 9 -3 19 -2 22 3 4 6 0 10 -7 10 -8 0 -9 3 -3 8 6 4 15 16 22 27 6 11
16 19 23 17 6 -1 9 2 5 8 -3 6 -10 8 -15 5 -5 -3 -12 0 -16 6 -4 7 -3 9 3 6 6
-4 17 1 24 10 12 14 12 16 -1 8 -13 -8 -13 -6 -2 8 8 9 11 21 7 27 -3 5 -1 10
5 10 6 0 8 5 5 10 -3 6 0 10 7 10 10 0 9 3 -2 10 -12 8 -12 11 3 27 15 17 15
21 2 40 -11 16 -12 24 -4 29 8 5 9 3 4 -6 -5 -8 -4 -11 3 -6 6 3 9 20 7 36 -2
17 0 30 5 30 4 0 7 8 5 18 -2 9 -4 17 -5 17 -1 0 -3 8 -5 18 -2 9 1 15 6 11 5
-3 6 -10 3 -16 -4 -7 -2 -8 5 -4 6 4 9 12 5 17 -3 5 -1 15 4 22 18 21 17 24
-2 46 -19 21 -19 22 0 37 16 14 17 15 1 10 -16 -5 -16 -4 0 22 14 21 14 24 2
15 -12 -10 -15 -8 -15 7 0 10 4 16 9 13 5 -3 7 0 5 8 -3 8 -1 22 4 33 7 12 7
16 0 12 -13 -8 -22 17 -13 33 11 17 1 62 -11 55 -6 -4 -5 3 1 15 9 16 9 21 0
21 -8 0 -8 4 1 15 8 10 9 15 2 15 -6 0 -9 13 -7 30 2 16 0 32 -5 35 -5 3 -6
13 -3 22 5 12 3 14 -7 8 -9 -5 -11 -4 -6 3 15 25 15 51 0 45 -10 -4 -12 0 -7
13 5 13 3 15 -8 9 -11 -6 -12 -5 -2 5 10 11 9 16 -5 27 -9 8 -12 12 -5 9 6 -4
14 -2 18 4 3 5 -1 10 -10 10 -9 0 -13 5 -10 10 3 6 0 10 -7 10 -9 0 -9 3 2 10
12 8 12 10 1 10 -11 0 -11 3 0 17 12 14 12 16 0 8 -11 -6 -13 -4 -8 8 3 9 3
16 -1 16 -19 -3 -23 2 -12 16 10 12 10 15 -3 15 -9 0 -19 5 -23 12 -4 7 -3 8
4 4 7 -4 12 -1 12 9 0 9 -4 13 -10 10 -9 -5 -16 40 -11 68 1 5 -3 6 -9 2 -6
-3 -7 -11 -4 -17 4 -7 2 -8 -5 -4 -6 4 -9 12 -6 17 4 5 1 9 -5 9 -8 0 -7 6 1
21 8 15 8 19 0 15 -10 -6 -15 6 -12 27 2 12 -17 8 -23 -5 -3 -7 -3 -2 0 11 5
18 3 22 -7 15 -12 -6 -12 -5 0 9 9 11 10 17 2 17 -6 0 -11 12 -11 27 0 14 -3
24 -6 20 -9 -9 -32 16 -27 30 3 7 -2 16 -11 19 -9 3 -13 10 -10 15 3 5 0 9 -6
9 -6 0 -8 5 -4 12 5 8 2 9 -10 5 -14 -5 -15 -3 -6 13 7 13 7 21 -2 26 -7 4 -8
3 -4 -4 4 -7 2 -12 -3 -12 -6 0 -11 9 -11 20 0 12 -7 20 -16 20 -10 0 -14 6
-10 15 5 14 -6 20 -28 16 -5 -1 -3 5 4 14 7 9 9 15 4 14 -26 -5 -36 1 -25 15
9 11 9 16 0 22 -8 4 -9 3 -5 -4 4 -7 2 -12 -4 -12 -6 0 -13 14 -17 30 -5 26
-8 29 -21 18 -12 -10 -14 -10 -8 0 4 6 2 12 -3 12 -6 0 -11 9 -11 20 0 11 -6
20 -14 20 -7 0 -20 8 -27 18 -13 15 -12 16 4 3 15 -12 17 -12 11 3 -3 9 -14
16 -25 16 -10 0 -26 13 -35 29 -10 17 -21 28 -26 25 -4 -3 -5 2 -2 11 4 9 3
15 -2 14 -5 -1 -16 -1 -24 0 -13 1 -13 2 0 11 12 8 10 10 -8 10 -13 0 -20 4
-17 10 3 6 -3 10 -14 10 -20 0 -26 11 -21 35 1 6 -2 7 -6 3 -4 -4 -13 0 -21
10 -8 9 -12 11 -8 5 4 -9 1 -11 -9 -7 -9 3 -13 10 -10 15 6 11 -37 29 -51 21
-5 -3 -4 2 4 11 12 15 12 17 -3 11 -9 -3 -16 -1 -16 6 0 6 -5 8 -12 4 -8 -5
-9 -2 -5 9 3 9 3 16 -1 16 -19 -3 -33 2 -27 10 3 6 -3 8 -14 6 -24 -4 -46 19
-35 37 5 10 4 10 -6 1 -11 -10 -18 -9 -34 5 -11 9 -16 11 -12 5 5 -9 2 -11 -9
-7 -9 4 -14 13 -11 20 3 8 0 11 -9 8 -8 -3 -22 2 -31 11 -9 9 -23 14 -30 11
-8 -3 -14 -1 -14 4 0 6 -7 10 -15 10 -8 0 -15 5 -15 10 0 6 -4 10 -10 10 -5 0
-7 -8 -3 -17 5 -15 3 -14 -10 2 -15 17 -18 18 -27 5 -9 -12 -10 -10 -5 9 6 19
4 23 -9 18 -11 -4 -16 -1 -17 11 0 11 -2 13 -6 4 -4 -10 -9 -9 -20 5 -8 10
-11 12 -7 4 5 -11 3 -13 -10 -8 -10 4 -20 7 -22 7 -3 0 -2 6 2 13 5 8 2 8 -9
-2 -13 -10 -17 -10 -17 -1 0 7 -7 10 -15 6 -8 -3 -15 0 -15 6 0 7 -4 7 -13 0
-10 -9 -17 -6 -30 8 -9 11 -22 20 -29 20 -9 0 -8 -3 2 -10 8 -5 10 -10 4 -10
-6 0 -17 7 -24 15 -7 8 -24 13 -41 11 -21 -2 -29 1 -30 13 0 12 -2 12 -8 -3
-7 -18 -8 -18 -14 -2 -6 15 -10 16 -22 6 -8 -7 -15 -8 -15 -3 0 5 -12 10 -27
11 -15 1 -30 8 -35 15 -7 11 -12 3 -9 -15 0 -4 -6 -5 -14 -2 -8 4 -15 11 -15
18 0 6 -5 4 -10 -4 -8 -13 -10 -13 -10 0 0 11 -3 11 -12 2 -9 -9 -16 -8 -30 4
-16 15 -18 15 -24 0 -3 -9 -10 -13 -15 -10 -5 3 -6 10 -3 16 4 7 2 8 -5 4 -6
-4 -19 -2 -27 5 -12 10 -13 9 -8 -5 3 -9 1 -16 -5 -16 -6 0 -11 7 -11 15 0 18
-16 20 -26 3 -5 -7 -3 -8 6 -3 7 5 11 4 7 -1 -8 -13 -64 -9 -82 6 -13 11 -14
10 -9 -5z m-6 -295 c-17 -11 -9 -13 14 -4 9 3 14 9 12 13 -8 13 54 3 71 -11 9
-7 14 -8 10 -2 -11 19 21 25 38 8 8 -9 15 -11 15 -5 0 6 5 11 11 11 5 0 7 -6
3 -12 -6 -9 -3 -9 9 0 9 8 22 10 29 6 7 -5 29 -10 48 -11 58 -5 79 -9 86 -16
12 -12 26 -8 19 6 -4 6 3 1 14 -13 14 -16 19 -19 15 -7 -8 22 12 23 20 1 4 -9
9 -14 13 -11 3 4 15 1 26 -5 17 -8 19 -8 14 5 -4 11 -2 14 8 11 8 -3 12 -11 9
-19 -4 -9 3 -12 25 -9 17 2 33 -1 36 -6 3 -5 15 -7 26 -5 17 3 19 1 9 -10 -9
-11 -7 -12 9 -8 14 3 21 1 21 -8 0 -11 2 -11 10 1 7 11 10 11 10 2 0 -8 5 -10
12 -6 8 5 9 2 4 -11 -6 -16 -4 -16 11 -4 11 9 14 10 9 2 -4 -8 -1 -13 9 -13 9
0 13 -4 10 -10 -3 -6 1 -7 9 -4 9 3 16 2 16 -4 0 -6 9 -8 20 -5 12 3 20 0 20
-6 0 -7 5 -9 10 -6 6 3 10 -1 10 -9 0 -9 9 -16 20 -16 11 0 20 -5 20 -11 0 -7
9 -9 21 -6 17 5 18 3 8 -9 -7 -8 -8 -14 -3 -13 23 4 35 -2 28 -13 -6 -10 -5
-10 8 -1 19 17 32 4 15 -15 -8 -11 -8 -14 0 -9 17 11 63 -10 63 -29 0 -14 2
-15 17 -3 15 12 16 12 10 -4 -5 -14 -2 -20 13 -24 11 -3 20 -10 20 -15 0 -5
-5 -6 -12 -2 -7 4 -8 3 -4 -5 6 -8 11 -9 20 -1 10 7 18 4 31 -14 11 -14 22
-23 27 -20 4 3 5 -3 1 -12 -5 -14 -2 -16 14 -12 16 4 19 1 17 -19 -2 -19 0
-22 11 -13 11 10 13 8 10 -9 -2 -14 1 -18 11 -14 7 3 17 -2 20 -11 3 -9 14
-16 23 -16 14 0 14 -2 1 -10 -13 -8 -12 -10 4 -10 12 0 16 -5 12 -15 -3 -8 -1
-15 4 -15 14 0 70 -61 70 -76 0 -7 10 -20 21 -28 14 -9 19 -21 15 -31 -5 -13
-2 -16 9 -11 9 3 14 2 11 -3 -3 -4 3 -16 14 -26 11 -10 20 -27 20 -37 0 -10 6
-21 14 -24 8 -3 12 -12 9 -20 -3 -8 0 -14 7 -14 6 0 8 -4 5 -10 -3 -5 -2 -10
3 -10 6 0 13 -7 16 -16 5 -12 3 -14 -7 -8 -7 5 -4 1 6 -8 11 -10 17 -24 14
-32 -3 -8 2 -16 14 -19 13 -4 17 -10 12 -23 -5 -13 -3 -15 8 -9 12 8 12 6 0
-8 -7 -9 -9 -17 -3 -17 5 0 13 -7 16 -16 3 -8 2 -12 -4 -9 -6 3 -7 -1 -4 -9 3
-9 11 -16 18 -16 6 0 4 -5 -4 -10 -13 -8 -13 -11 -1 -22 11 -11 13 -11 6 1 -5
9 -4 12 2 8 6 -4 10 -17 9 -29 -1 -13 3 -26 9 -30 6 -5 5 -11 -5 -18 -13 -8
-13 -10 2 -10 9 0 20 -5 24 -12 4 -7 3 -8 -4 -4 -7 4 -12 1 -12 -9 0 -10 5
-13 13 -9 8 5 8 2 -2 -9 -12 -15 -9 -21 10 -19 3 1 6 -5 6 -13 0 -8 -4 -12 -8
-9 -4 2 -10 0 -14 -6 -3 -5 1 -10 11 -10 13 0 14 -3 5 -14 -9 -11 -9 -16 0
-22 8 -5 9 -3 4 6 -5 9 -4 11 4 6 9 -6 9 -11 0 -22 -7 -9 -8 -14 -1 -14 6 0 9
-8 8 -17 -2 -10 0 -32 5 -50 4 -22 3 -33 -5 -34 -8 0 -7 -2 1 -5 8 -4 9 -13 3
-29 -5 -12 -6 -26 -3 -29 10 -10 6 -141 -5 -163 -8 -15 -8 -23 1 -33 9 -10 9
-11 0 -6 -19 11 -16 -5 5 -21 9 -8 12 -12 5 -8 -15 7 -27 -35 -21 -70 3 -14 1
-25 -4 -25 -5 0 -6 -5 -3 -11 4 -6 0 -9 -11 -7 -10 2 -19 -1 -19 -7 0 -5 -6
-19 -14 -30 -9 -15 -11 -16 -7 -2 3 9 1 17 -4 17 -6 0 -10 -4 -10 -10 0 -5 -7
-7 -15 -4 -8 4 -15 1 -15 -5 0 -6 -5 -11 -11 -11 -5 0 -8 3 -6 8 3 4 -20 7
-51 7 -48 0 -57 -3 -56 -18 1 -9 -2 -17 -7 -17 -5 0 -9 10 -9 22 0 21 0 21
-16 2 -11 -13 -17 -15 -20 -6 -3 6 -10 10 -15 6 -5 -3 -9 3 -10 13 0 16 -1 16
-9 -2 -5 -11 -9 -14 -9 -6 -1 10 -4 11 -15 2 -11 -9 -16 -9 -22 0 -5 8 -3 9 6
4 9 -6 11 -4 6 4 -5 7 -14 10 -22 7 -9 -3 -19 3 -25 17 -8 19 -9 18 -5 -8 3
-16 3 -24 0 -17 -3 6 -11 9 -16 6 -7 -4 -8 -2 -4 4 4 7 2 12 -4 12 -6 0 -8 5
-4 13 5 7 0 6 -11 -3 -10 -8 -16 -10 -12 -4 4 7 0 15 -9 18 -10 4 -13 2 -8 -7
3 -6 -6 2 -21 18 -14 17 -23 24 -19 16 4 -9 2 -12 -7 -9 -8 3 -13 11 -11 17 2
9 -3 9 -17 1 -17 -9 -19 -7 -16 11 4 17 2 19 -10 9 -12 -10 -15 -9 -15 3 0 8
-7 18 -16 21 -8 3 -12 11 -8 17 5 8 1 8 -13 0 -18 -9 -20 -7 -17 14 2 21 0 23
-16 15 -15 -8 -17 -6 -13 13 4 18 3 19 -7 7 -10 -13 -11 -11 -7 7 3 14 1 20
-7 17 -7 -3 -18 7 -26 21 -7 14 -17 25 -22 25 -5 0 -7 4 -3 9 3 5 -1 16 -9 24
-8 8 -12 17 -9 21 4 3 0 6 -7 6 -7 0 -10 3 -7 7 4 3 -1 12 -11 20 -9 8 -11 12
-5 8 9 -4 11 -1 7 9 -3 9 -10 13 -15 10 -5 -3 -7 5 -5 18 2 13 -5 38 -15 57
-10 19 -15 39 -12 44 4 6 1 7 -7 2 -10 -6 -12 -1 -8 19 4 21 2 26 -9 22 -7 -3
-13 0 -12 7 3 24 -1 38 -9 33 -5 -3 -9 1 -9 9 0 8 5 12 11 9 6 -3 0 5 -14 17
-17 15 -19 20 -7 16 9 -4 17 -2 17 3 0 6 -9 10 -19 10 -14 0 -18 5 -14 20 3
11 0 20 -6 20 -6 0 -11 9 -11 21 0 13 -4 18 -12 13 -9 -6 -9 -3 0 9 12 14 11
16 -7 12 -19 -3 -20 -1 -10 18 7 12 8 19 4 15 -9 -8 -27 8 -44 41 -9 17 -10
21 -1 16 8 -5 7 0 -2 14 -7 12 -18 21 -24 21 -6 0 -11 10 -10 22 1 14 -8 27
-21 34 -13 6 -20 14 -16 17 3 4 2 7 -4 7 -6 0 -13 10 -16 21 -4 15 -11 20 -23
15 -13 -5 -14 -3 -7 6 8 9 4 19 -12 35 -13 12 -26 19 -31 15 -4 -4 -4 -2 0 5
8 14 -23 55 -36 47 -7 -5 -12 17 -9 38 0 4 -7 4 -16 1 -11 -4 -14 -3 -9 5 4 7
2 12 -4 12 -6 0 -8 5 -4 12 4 6 3 8 -4 4 -6 -3 -16 0 -24 7 -7 7 -17 14 -23
15 -5 1 -10 8 -10 15 -1 6 -7 11 -15 9 -8 -2 -12 -1 -9 3 8 7 -37 55 -51 55
-6 0 -10 8 -10 18 0 14 -2 15 -10 2 -7 -11 -10 -12 -10 -2 0 7 -7 20 -15 28
-10 11 -15 12 -15 3 0 -7 -9 -2 -20 11 -11 13 -20 26 -20 29 0 4 -9 7 -20 8
-23 2 -50 26 -50 44 0 9 -3 9 -14 0 -11 -9 -16 -9 -22 0 -5 8 -3 9 6 4 9 -6
11 -4 6 4 -5 7 -14 10 -22 7 -8 -3 -14 -1 -14 5 0 6 -4 7 -10 4 -5 -3 -10 4
-10 16 0 18 -2 19 -15 9 -12 -10 -15 -10 -15 0 0 7 -7 10 -14 7 -11 -4 -13 -1
-9 10 5 12 2 15 -10 10 -9 -3 -23 0 -30 8 -9 9 -18 10 -26 4 -6 -5 -9 -6 -7
-3 3 3 -1 12 -7 19 -9 9 -16 10 -25 3 -9 -8 -11 -7 -6 7 5 13 4 16 -4 11 -7
-4 -12 -1 -13 6 0 11 -2 11 -6 0 -4 -10 -9 -8 -20 7 -8 12 -18 19 -22 16 -5
-2 -17 2 -27 9 -14 11 -24 11 -39 4 -11 -6 -17 -7 -13 -3 13 14 -25 34 -45 24
-12 -7 -19 -6 -23 5 -3 8 -12 12 -19 10 -7 -3 -16 -1 -20 5 -3 6 -17 11 -31
11 -14 0 -22 4 -19 10 3 6 1 10 -4 10 -6 0 -11 -6 -11 -12 0 -10 -3 -9 -9 1
-5 8 -14 10 -21 6 -9 -6 -11 -4 -5 5 6 9 4 12 -7 8 -8 -4 -15 0 -15 8 0 7 4
11 9 8 4 -3 11 2 14 10 3 9 10 13 15 10 5 -3 6 -10 3 -16 -4 -7 -2 -8 4 -4 6
4 9 13 6 21 -4 10 0 13 15 10 15 -3 18 0 14 13 -6 15 -5 16 12 2 11 -9 16 -10
11 -2 -7 11 20 17 71 15 7 -1 10 4 7 9 -3 5 -13 7 -21 4 -8 -3 -11 -1 -8 5 4
5 15 7 26 4 11 -4 19 -2 19 4 0 6 5 11 11 11 5 0 7 -5 3 -12 -4 -7 8 -1 26 12
18 13 30 19 26 12 -4 -7 -2 -12 4 -12 6 0 13 6 16 13 3 8 15 13 27 12 12 -1
31 4 43 12 11 7 24 10 27 7 4 -4 12 -2 19 3 7 6 21 9 30 8 10 -2 21 1 24 6 3
6 11 5 20 -2 11 -9 14 -9 14 1 0 8 9 10 26 6 19 -5 24 -4 18 6 -5 8 -1 8 11
-2 11 -9 16 -10 11 -2 -4 6 -3 12 1 12 5 0 15 -6 22 -12 11 -11 12 -10 6 1 -6
10 -4 13 7 9 8 -4 21 -2 29 2 7 5 16 7 18 4 3 -3 -1 -9 -9 -14z m-1150 -174
c0 -3 -4 -8 -10 -11 -5 -3 -10 -1 -10 4 0 6 5 11 10 11 6 0 10 -2 10 -4z m735
-76 c3 -5 1 -10 -4 -10 -6 0 -11 5 -11 10 0 6 2 10 4 10 3 0 8 -4 11 -10z
m109 -38 c3 -5 -1 -9 -9 -9 -8 0 -12 4 -9 9 3 4 7 8 9 8 2 0 6 -4 9 -8z
m-1164 -235 c0 5 7 10 15 10 8 0 12 -4 9 -9 -5 -7 10 -12 29 -9 11 2 9 -7 -9
-35 -11 -16 -23 -23 -33 -19 -12 5 -13 4 -4 -6 9 -9 6 -16 -13 -31 -20 -16
-22 -23 -13 -34 9 -11 9 -14 -1 -14 -7 0 -10 -6 -7 -14 3 -8 -2 -20 -11 -28
-15 -12 -16 -11 -3 5 7 9 9 17 3 17 -13 0 -22 -24 -17 -49 2 -14 -1 -18 -11
-14 -20 7 -18 -7 4 -23 16 -12 16 -12 -3 -11 -14 1 -20 -4 -19 -16 1 -13 -1
-15 -10 -8 -10 8 -11 3 -8 -21 4 -24 2 -29 -9 -23 -11 6 -12 5 -1 -6 10 -11 8
-17 -10 -32 -19 -16 -20 -18 -4 -13 15 5 17 4 8 -7 -7 -8 -8 -18 -4 -23 4 -4
0 -3 -9 4 -14 11 -16 9 -11 -13 2 -14 -1 -32 -8 -40 -7 -9 -10 -18 -6 -22 3
-3 6 0 6 7 0 7 3 10 7 6 4 -4 -3 -16 -17 -28 -21 -17 -22 -19 -5 -14 17 5 16
3 -5 -15 -14 -11 -19 -17 -11 -13 11 6 13 3 6 -12 -4 -10 -8 -31 -8 -46 0 -15
-5 -24 -10 -21 -6 4 -8 -5 -5 -21 3 -14 1 -26 -4 -26 -5 0 -6 -4 -3 -10 3 -5
0 -10 -7 -11 -10 0 -10 -2 0 -6 6 -2 12 -9 12 -14 0 -6 -4 -8 -9 -5 -14 9 -21
-20 -8 -33 8 -8 8 -11 -1 -11 -10 0 -10 -5 -2 -20 6 -11 7 -20 3 -20 -10 0
-10 -41 0 -57 4 -6 0 -14 -9 -17 -13 -5 -14 -9 -4 -21 7 -9 10 -18 7 -22 -4
-3 -2 -12 3 -18 8 -9 6 -14 -6 -19 -13 -5 -14 -9 -4 -21 6 -8 9 -19 6 -24 -4
-5 -1 -13 5 -17 8 -5 7 -9 -2 -14 -10 -7 -10 -12 0 -23 9 -12 9 -16 -1 -19
-10 -4 -10 -8 1 -21 7 -10 9 -17 3 -17 -10 0 -9 -61 2 -79 3 -5 0 -12 -6 -14
-8 -3 -6 -6 5 -6 19 -1 24 -21 5 -22 -10 0 -10 -2 0 -6 10 -4 10 -8 1 -20 -7
-8 -8 -13 -3 -12 25 4 36 -1 26 -14 -9 -10 -7 -19 5 -37 9 -13 11 -20 5 -16
-7 4 -10 -1 -9 -14 1 -11 6 -20 12 -20 5 0 4 -4 -3 -9 -11 -6 -10 -11 3 -25
10 -10 12 -16 5 -16 -7 0 -4 -8 7 -17 10 -10 14 -15 9 -10 -20 15 -28 6 -9
-10 21 -19 40 -58 23 -48 -6 3 -7 -1 -4 -9 3 -9 11 -16 18 -16 6 0 4 -5 -4
-10 -12 -8 -12 -10 5 -10 17 0 17 -2 5 -10 -13 -9 -13 -10 0 -10 13 0 13 -1 0
-10 -13 -8 -13 -10 1 -10 9 0 20 -7 23 -16 3 -8 2 -12 -4 -9 -6 3 -10 2 -10
-2 0 -5 9 -14 19 -20 11 -7 18 -20 17 -30 -2 -10 6 -24 18 -31 20 -12 20 -13
1 -8 -20 6 -20 6 -1 -9 11 -8 14 -15 8 -15 -7 0 -12 -5 -12 -10 0 -6 3 -9 8
-9 20 3 33 -2 27 -11 -4 -6 -11 -7 -17 -4 -7 4 -8 2 -4 -5 4 -6 12 -8 18 -5 7
5 9 1 5 -9 -4 -11 -2 -14 9 -10 9 3 14 0 12 -8 -2 -8 2 -13 9 -12 7 2 10 -4 7
-12 -4 -8 -11 -12 -18 -9 -6 3 -3 -1 7 -9 9 -8 17 -17 17 -21 0 -5 10 -16 23
-27 12 -10 17 -18 11 -19 -6 0 -11 -6 -11 -14 0 -8 5 -12 12 -10 13 5 58 -53
51 -65 -3 -5 4 -11 15 -14 15 -4 20 -11 16 -21 -4 -10 -1 -16 8 -16 8 0 14 -3
14 -7 -1 -5 -1 -15 0 -23 1 -13 2 -13 11 0 8 13 10 13 10 0 0 -8 17 -30 38
-48 20 -19 29 -29 19 -22 -9 7 -20 10 -23 8 -3 -3 8 -12 25 -19 16 -7 27 -17
25 -21 -3 -4 0 -8 6 -8 6 0 8 -5 4 -12 -5 -8 -2 -8 10 1 9 8 16 10 15 5 -4
-21 2 -34 13 -32 7 2 13 -3 14 -9 1 -7 2 -17 3 -21 0 -5 8 -9 16 -10 8 -1 22
-3 30 -4 8 -1 12 -5 9 -10 -9 -14 33 -51 48 -42 10 6 11 5 1 -7 -10 -13 -10
-16 5 -16 9 0 21 5 25 11 5 6 5 1 2 -11 -4 -14 -2 -23 5 -23 6 0 8 -5 4 -11
-5 -8 -1 -8 14 0 23 12 38 0 26 -21 -4 -7 -3 -8 5 -4 6 4 14 0 17 -9 5 -13 9
-13 22 -3 9 7 13 8 10 3 -4 -6 -3 -17 3 -25 6 -11 9 -12 9 -2 0 7 5 10 10 7 6
-4 8 -10 5 -15 -3 -5 0 -12 6 -16 8 -4 9 -3 5 4 -4 7 -2 12 3 12 6 0 11 -5 11
-11 0 -5 5 -7 12 -3 7 5 9 2 6 -8 -4 -8 0 -15 8 -15 7 0 10 5 7 11 -4 6 1 5
11 -3 13 -11 14 -16 4 -22 -9 -6 -9 -9 -1 -9 6 0 15 5 18 10 9 14 35 -7 36
-29 0 -12 2 -11 9 4 8 18 9 18 9 2 1 -10 5 -16 10 -13 5 3 12 -1 15 -10 5 -13
9 -14 20 -5 11 9 16 9 22 0 5 -8 3 -10 -7 -5 -8 4 -6 1 3 -7 10 -8 15 -17 11
-21 -4 -4 0 -4 10 0 9 3 23 1 31 -5 7 -6 16 -8 19 -4 4 3 14 0 24 -8 15 -12
16 -12 8 1 -6 11 -3 10 12 -3 11 -9 23 -14 26 -10 4 3 7 2 7 -4 0 -6 10 -10
23 -10 30 0 79 -21 73 -31 -3 -5 1 -9 9 -9 8 0 12 4 9 9 -10 15 9 8 23 -9 14
-17 14 -17 9 2 -5 18 -4 17 14 -4 11 -13 20 -18 20 -12 0 8 11 6 33 -5 31 -16
31 -16 17 1 -14 17 -14 17 10 4 14 -8 27 -16 30 -19 7 -7 31 -13 57 -14 12 -1
25 -5 30 -10 5 -5 2 -6 -6 -1 -9 5 -12 4 -7 -3 4 -6 14 -8 23 -5 12 5 14 3 8
-8 -6 -11 -5 -12 6 -1 13 12 38 18 26 5 -12 -11 37 -31 51 -20 8 6 12 5 12 -3
0 -9 3 -10 13 -1 10 8 19 6 35 -10 15 -13 22 -15 23 -7 0 9 2 10 5 1 3 -7 11
-10 19 -7 7 3 16 0 21 -7 5 -8 3 -10 -6 -4 -8 5 -11 4 -6 -3 4 -6 13 -9 21 -6
8 4 12 10 9 15 -3 5 2 6 10 3 9 -3 16 -10 16 -16 0 -5 4 -7 9 -4 5 3 12 -1 15
-9 4 -12 10 -13 25 -6 15 8 20 7 25 -5 3 -8 11 -12 17 -8 7 4 19 -1 27 -12 13
-17 14 -17 8 -1 -5 16 -4 17 15 4 11 -8 30 -12 41 -9 12 3 19 1 16 -4 -4 -5 5
-10 18 -10 14 -1 21 2 17 9 -3 6 -1 7 6 3 6 -4 9 -11 6 -16 -8 -12 21 -20 33
-8 6 6 12 6 17 -3 6 -8 4 -10 -6 -4 -8 5 -11 5 -7 1 3 -4 10 -8 15 -8 4 1 16
-7 26 -16 10 -9 18 -12 17 -7 -5 25 2 26 20 5 11 -13 20 -17 20 -10 0 9 4 9
13 3 6 -6 20 -9 30 -8 9 2 17 -1 17 -6 0 -6 5 -7 10 -4 6 3 10 2 10 -3 0 -6 9
-8 20 -5 11 3 20 1 20 -4 0 -5 13 -8 30 -7 19 1 28 -2 23 -9 -4 -6 0 -8 10 -4
10 3 17 2 17 -2 0 -5 10 -7 23 -4 16 4 19 2 8 -5 -11 -8 -9 -11 10 -14 15 -2
23 -9 21 -18 -2 -11 1 -11 11 2 16 20 29 14 20 -9 -5 -12 -2 -13 13 -5 21 11
46 -1 57 -28 4 -11 6 -10 7 5 1 19 2 19 20 -4 11 -13 26 -21 34 -18 8 3 17 -1
20 -9 3 -8 11 -14 18 -14 7 0 19 -9 26 -21 7 -11 19 -18 27 -15 7 2 19 -2 25
-9 7 -8 15 -14 18 -13 20 2 23 -4 11 -19 -8 -10 -9 -14 -2 -10 6 4 15 2 19 -4
4 -8 9 -7 15 2 6 10 9 8 9 -8 0 -13 5 -23 11 -23 5 0 7 5 3 12 -4 7 -3 8 4 4
7 -4 12 -12 12 -17 0 -11 24 -38 37 -42 4 -1 7 -6 5 -10 -1 -4 7 -3 18 3 11 6
20 7 19 3 -4 -21 3 -32 21 -38 12 -4 20 -15 20 -28 0 -18 2 -19 10 -7 9 13 10
13 10 0 0 -9 9 -22 20 -30 11 -8 20 -24 21 -35 0 -11 3 -14 6 -8 2 7 19 -7 40
-35 19 -26 46 -57 59 -70 14 -13 21 -28 17 -35 -5 -9 -3 -8 8 0 14 11 16 9 14
-17 -1 -16 1 -29 4 -28 18 2 31 -3 31 -13 0 -5 -6 -7 -12 -3 -7 4 -10 4 -6 0
3 -4 8 -6 11 -4 9 7 36 -24 31 -36 -3 -8 1 -16 9 -19 9 -3 13 -16 12 -32 -2
-16 2 -28 11 -32 8 -3 11 -9 8 -14 -3 -5 0 -9 5 -9 6 0 11 -9 11 -20 0 -11 5
-20 11 -20 6 0 9 -7 6 -15 -4 -8 -1 -17 5 -21 7 -5 8 -2 3 6 -6 9 -4 11 4 5 9
-5 10 -10 2 -18 -7 -7 -4 -16 10 -28 12 -11 16 -20 9 -24 -5 -3 -10 -12 -10
-18 0 -7 4 -6 10 3 6 10 10 11 10 3 0 -7 -1 -15 -2 -16 -2 -2 4 -12 12 -22 8
-11 10 -16 4 -12 -6 3 -11 0 -11 -8 0 -8 5 -11 10 -8 6 4 8 -2 5 -15 -4 -16
-2 -19 10 -15 10 4 13 2 8 -5 -4 -7 -1 -12 6 -13 7 0 4 -4 -7 -9 -16 -7 -17
-9 -3 -9 9 -1 20 -6 24 -13 5 -8 2 -9 -10 -5 -13 5 -15 3 -7 -12 6 -10 7 -21
4 -25 -3 -3 -1 -6 7 -6 10 0 10 -3 1 -14 -8 -10 -9 -16 -1 -21 5 -3 10 -15 10
-26 0 -10 6 -19 13 -19 8 0 7 -4 -3 -10 -13 -9 -13 -10 0 -10 13 0 13 -1 0
-10 -8 -5 -10 -10 -4 -10 13 0 12 -58 -1 -79 -6 -11 -4 -13 9 -8 14 5 15 3 6
-13 -13 -23 -13 -33 -1 -25 6 3 6 -6 1 -24 -5 -19 -4 -33 3 -40 8 -8 8 -11 -1
-11 -6 0 -9 -7 -6 -15 4 -8 11 -12 17 -8 6 4 7 1 3 -6 -5 -7 -14 -10 -22 -7
-8 3 -11 0 -7 -9 3 -8 9 -12 14 -9 5 3 5 -6 -1 -20 -5 -14 -7 -26 -4 -26 4 0
1 -6 -5 -14 -9 -10 -9 -16 -1 -21 8 -5 8 -11 -1 -21 -6 -8 -7 -14 -2 -14 5 0
9 -9 9 -19 0 -16 -3 -18 -15 -8 -12 10 -13 9 -7 -1 13 -22 14 -73 1 -62 -7 6
-11 3 -11 -10 0 -10 5 -16 11 -12 5 3 4 -2 -3 -11 -8 -9 -11 -20 -8 -26 3 -5
1 -11 -6 -13 -6 -2 -12 -12 -14 -21 -1 -9 2 -15 7 -12 5 4 6 -1 3 -9 -3 -9
-10 -14 -14 -11 -4 3 -10 -4 -13 -15 -3 -11 0 -20 6 -20 8 0 8 -3 0 -11 -6 -6
-9 -18 -6 -27 4 -9 2 -13 -4 -9 -6 4 -10 -1 -9 -11 0 -10 -5 -16 -13 -14 -10
2 -12 0 -4 -10 10 -14 -8 -63 -20 -52 -3 4 -4 -6 -1 -21 4 -23 2 -26 -13 -21
-9 4 -14 4 -10 0 4 -4 1 -14 -6 -22 -10 -13 -9 -14 3 -8 8 4 4 -2 -10 -14 -14
-12 -20 -19 -13 -16 7 4 9 -1 6 -14 -3 -11 -10 -20 -15 -20 -5 0 -6 6 -2 13 4
7 3 9 -2 4 -5 -5 -10 -13 -10 -18 -1 -5 -2 -14 -3 -20 0 -5 -5 -7 -11 -4 -6 3
-7 -1 -4 -9 4 -11 0 -16 -11 -16 -15 0 -16 -2 -4 -17 12 -15 12 -16 -5 -10
-17 7 -17 6 -5 -10 8 -9 9 -14 3 -10 -7 4 -14 -2 -17 -14 -3 -12 -10 -18 -15
-15 -6 3 -8 -2 -5 -14 3 -12 0 -20 -6 -20 -7 0 -9 5 -5 12 4 6 3 8 -4 4 -6 -3
-9 -15 -7 -26 3 -13 -1 -17 -11 -13 -9 3 -14 0 -12 -8 2 -8 -5 -13 -15 -13
-14 2 -15 -1 -6 -12 11 -14 1 -20 -25 -15 -5 1 -3 -6 5 -15 12 -15 12 -17 0
-9 -11 6 -13 4 -7 -10 6 -16 4 -16 -11 -4 -11 9 -14 10 -9 1 4 -7 1 -15 -8
-18 -9 -3 -14 -10 -11 -14 3 -4 -15 -26 -39 -48 -24 -22 -41 -44 -38 -48 4 -5
-2 -2 -12 6 -14 11 -18 11 -12 2 5 -9 1 -15 -14 -19 -13 -3 -19 -11 -16 -19 3
-8 -1 -14 -10 -14 -8 0 -12 -5 -8 -11 4 -7 -1 -7 -16 1 -18 10 -21 9 -15 -1 6
-9 3 -11 -8 -6 -12 4 -14 2 -10 -10 5 -12 3 -14 -7 -8 -10 6 -12 4 -7 -8 4
-11 1 -15 -14 -12 -14 3 -19 -2 -19 -17 0 -21 0 -21 -16 -2 -8 10 -13 13 -9 6
8 -15 -18 -42 -40 -42 -9 0 -13 -5 -9 -11 4 -7 1 -10 -7 -7 -8 3 -20 -2 -27
-11 -11 -13 -12 -13 -7 -1 4 8 -3 4 -15 -10 -12 -14 -19 -19 -15 -12 3 6 1 12
-5 12 -6 0 -13 -6 -16 -14 -3 -8 -13 -17 -21 -20 -14 -6 -14 -4 -3 11 8 10 1
6 -14 -10 -27 -27 -43 -36 -31 -17 3 6 1 10 -4 10 -6 0 -11 -5 -11 -11 0 -6
-7 -8 -16 -5 -8 3 -12 2 -9 -4 3 -6 1 -10 -5 -10 -6 0 -8 -6 -4 -12 4 -7 4
-10 -1 -6 -4 4 -15 2 -23 -5 -13 -10 -14 -9 -7 2 6 11 4 13 -11 7 -34 -13 -38
-11 -39 21 -1 17 1 32 4 31 19 -2 22 4 11 17 -11 13 -10 14 5 9 13 -5 16 -4
11 4 -4 8 0 12 11 13 10 0 13 3 6 6 -7 2 -13 9 -13 14 0 6 5 7 10 4 9 -6 15 8
11 29 -1 5 4 4 12 -2 12 -10 13 -8 9 14 -3 18 -1 25 6 20 6 -3 9 1 8 11 -2 10
4 24 13 31 9 8 10 10 2 6 -9 -5 -12 -3 -7 4 4 7 15 12 24 12 13 0 13 2 -4 15
-10 8 -14 15 -9 14 22 -3 29 2 15 11 -13 8 -13 10 2 10 9 0 20 5 24 12 4 7 3
8 -4 4 -7 -4 -12 -3 -12 3 0 5 4 13 10 16 5 3 15 15 21 27 8 16 8 19 -1 13 -8
-5 -11 -3 -8 6 3 8 10 13 16 12 6 -2 9 10 7 27 -2 16 0 32 6 35 5 4 9 11 9 16
0 6 -5 7 -12 3 -7 -4 -8 -3 -4 5 4 6 12 8 18 5 7 -5 9 -2 5 8 -3 9 0 21 6 28
9 10 9 11 -3 5 -13 -7 -13 -6 1 11 8 10 15 26 14 34 0 8 4 18 10 22 6 5 4 8
-4 8 -11 0 -9 4 5 15 10 8 16 15 12 15 -4 0 -3 12 2 26 7 17 7 23 -1 19 -13
-9 -8 27 6 38 7 4 7 9 0 15 -15 11 -15 44 0 38 8 -3 11 2 8 14 -3 11 0 33 5
50 12 34 6 63 -12 53 -6 -4 -4 1 4 11 16 21 23 49 9 40 -5 -3 -9 0 -9 5 0 6 6
11 13 12 9 0 9 2 0 6 -9 3 -10 10 -3 24 8 14 7 19 -2 19 -6 0 -3 7 8 15 12 10
14 14 4 13 -16 -3 -21 21 -8 38 5 7 2 14 -8 18 -13 5 -14 9 -4 21 7 8 9 15 6
15 -4 0 -2 10 4 23 l11 22 -18 -23 -19 -23 1 26 c1 13 4 28 8 31 3 4 2 16 -4
27 -8 14 -8 18 0 13 6 -4 11 -2 11 3 0 6 -4 11 -9 11 -5 0 -12 7 -15 16 -3 8
-2 12 4 9 16 -10 11 17 -7 37 -9 11 -11 18 -5 18 7 0 12 -5 12 -12 0 -6 3 -8
6 -5 4 4 2 13 -4 20 -7 8 -8 18 -4 22 4 5 1 5 -5 1 -12 -6 -19 18 -14 47 0 4
-4 7 -9 7 -12 0 -9 22 5 32 6 5 5 8 -3 8 -8 0 -10 5 -6 12 5 7 2 9 -8 5 -17
-6 -19 8 -4 32 7 10 6 12 -4 6 -10 -6 -12 -2 -8 18 3 14 2 25 -1 24 -3 -1 -7
2 -8 6 -1 5 -10 15 -20 23 -10 7 -14 14 -9 14 5 0 2 8 -5 17 -8 10 -9 14 -2
10 6 -4 14 -3 18 3 3 5 0 10 -8 10 -16 0 -30 27 -21 41 3 5 -3 9 -13 10 -10 0
-13 3 -5 6 6 2 12 9 12 14 0 6 -4 8 -9 5 -5 -3 -12 1 -15 10 -4 9 -2 13 5 8 6
-3 3 5 -6 19 -10 15 -13 32 -9 39 5 9 2 8 -12 -2 -10 -8 -16 -11 -12 -6 4 4
-2 24 -12 44 -11 19 -16 40 -13 45 3 6 1 7 -5 3 -11 -6 -17 12 -13 36 0 5 -5
7 -12 5 -6 -1 -11 4 -9 12 2 8 -3 11 -12 8 -9 -4 -18 -1 -22 5 -4 7 -3 8 4 4
7 -4 12 -3 12 1 0 5 -9 14 -21 21 -17 11 -18 16 -8 28 10 12 9 13 -7 8 -10 -4
-16 -4 -12 0 3 4 -7 20 -23 35 -16 15 -26 31 -22 34 3 4 1 7 -5 7 -7 0 -12 9
-12 20 0 11 -7 20 -15 20 -8 0 -15 6 -15 14 0 7 -10 21 -22 30 -13 9 -17 14
-9 10 9 -5 12 -3 7 4 -4 6 -14 8 -24 5 -9 -3 -14 -3 -10 2 4 4 0 14 -10 22 -9
8 -11 12 -4 8 6 -3 12 -2 12 4 0 5 -10 13 -22 17 -27 8 -49 29 -41 38 6 5 -20
10 -39 7 -4 0 -5 6 -2 14 4 8 1 15 -5 15 -6 0 -11 8 -12 18 0 10 -3 12 -6 5
-2 -7 -9 -13 -14 -13 -4 0 -6 6 -3 14 3 8 -12 25 -41 45 -49 33 -72 42 -39 15
18 -15 18 -15 -5 -2 -14 8 -27 21 -29 28 -3 7 0 10 7 6 6 -4 11 -2 11 4 0 7
-8 9 -20 5 -15 -5 -20 -2 -20 12 0 15 -2 16 -10 3 -8 -13 -10 -13 -10 2 0 12
-5 15 -17 11 -10 -4 -14 -2 -10 4 8 13 -20 26 -35 16 -7 -4 -8 -1 -3 7 6 10 4
12 -8 7 -12 -4 -14 -2 -10 10 4 11 3 14 -5 9 -7 -4 -15 0 -18 9 -6 13 -8 14
-15 3 -7 -10 -9 -10 -9 0 0 6 -6 12 -13 12 -7 0 -19 9 -27 20 -14 19 -37 29
-26 12 3 -5 -1 -9 -9 -9 -8 0 -15 7 -15 16 0 14 -2 14 -10 1 -7 -11 -10 -12
-10 -2 0 7 -8 21 -17 30 -16 16 -16 16 -10 0 3 -10 1 -20 -5 -24 -7 -4 -8 -3
-4 4 4 7 1 12 -9 12 -9 0 -14 3 -12 8 3 4 -2 14 -11 22 -14 13 -15 12 -9 -4 6
-15 5 -17 -6 -8 -8 7 -18 8 -22 4 -5 -4 -5 -1 0 7 6 11 3 13 -13 9 -16 -4 -23
0 -28 16 -7 21 -7 21 -15 1 -4 -11 -8 -14 -8 -7 -1 6 -12 12 -26 12 -14 0 -25
6 -25 13 0 8 -4 7 -10 -3 -8 -12 -10 -12 -11 5 0 12 -3 15 -6 7 -4 -10 -9 -9
-20 5 -8 10 -11 11 -7 3 4 -8 -4 -5 -17 7 -20 18 -28 20 -38 10 -10 -9 -15 -9
-18 0 -2 7 -11 9 -20 6 -9 -4 -21 1 -29 12 -8 10 -14 14 -14 8 0 -7 -9 -11
-19 -10 -11 0 -17 5 -15 9 5 7 -3 10 -22 7 -4 0 -11 5 -15 13 -7 11 -9 11 -9
0 0 -10 -4 -9 -16 3 -10 10 -24 13 -36 9 -16 -5 -19 -3 -12 7 6 10 3 10 -11
-1 -10 -8 -16 -10 -13 -5 3 6 -1 17 -10 25 -14 13 -15 12 -9 -2 4 -12 2 -15
-9 -11 -7 3 -14 10 -14 17 0 6 -5 4 -10 -4 -5 -8 -10 -10 -10 -4 0 7 -7 15
-16 18 -8 3 -13 2 -9 -3 7 -13 -25 -7 -33 5 -9 13 -45 27 -37 15 3 -5 0 -13
-6 -17 -7 -4 -9 -3 -6 3 4 6 -1 17 -10 24 -12 10 -14 10 -9 2 4 -7 2 -13 -3
-13 -6 0 -11 5 -11 10 0 6 -14 10 -31 10 -21 0 -28 4 -23 13 4 6 4 9 -1 5 -4
-4 -15 -2 -23 5 -11 8 -14 8 -9 0 4 -6 3 -14 -3 -18 -5 -3 -10 1 -10 11 0 14
-3 14 -16 4 -13 -11 -16 -10 -21 8 -4 16 -11 20 -34 17 -16 -2 -29 0 -29 3 0
4 -16 8 -37 9 -20 1 -40 8 -44 15 -7 10 -9 10 -9 -1 0 -11 -4 -10 -16 5 -8 10
-13 14 -9 7 6 -14 -35 -9 -44 5 -9 12 -43 24 -36 12 3 -6 -1 -7 -9 -4 -9 3
-16 11 -16 17 0 6 -3 7 -7 4 -3 -4 -15 0 -25 10 -10 9 -21 13 -25 10 -3 -4 -1
-7 5 -7 7 0 12 -7 12 -15 0 -13 -4 -12 -22 5 -12 11 -34 20 -50 20 -15 0 -28
5 -28 11 0 6 -6 9 -12 6 -17 -6 -80 28 -70 38 4 4 -4 2 -18 -5 -24 -13 -24
-12 -10 5 14 17 14 18 -7 6 -20 -10 -23 -9 -23 5 0 12 -6 15 -25 12 -20 -4
-30 1 -46 24 -16 21 -26 27 -41 22 -16 -5 -19 -3 -12 7 6 12 5 12 -8 1 -13
-10 -17 -10 -22 3 -4 11 -2 14 6 9 7 -5 8 -3 4 5 -5 7 -15 10 -23 7 -11 -5
-13 -2 -9 10 6 15 4 15 -11 3 -11 -9 -14 -10 -9 -1 4 7 1 12 -9 12 -10 0 -13
5 -9 12 5 7 2 9 -9 5 -9 -3 -18 0 -21 8 -3 8 -12 12 -21 9 -11 -5 -14 -2 -9
10 5 12 0 16 -22 16 -21 0 -25 3 -15 9 11 7 9 10 -8 16 -11 3 -21 14 -21 23 0
15 -2 15 -10 2 -8 -13 -10 -12 -10 3 0 11 -9 21 -20 24 -11 3 -20 10 -20 15 0
5 -5 6 -12 2 -8 -5 -9 -2 -5 10 4 10 3 15 -3 11 -6 -3 -10 -1 -10 5 0 7 -7 9
-16 6 -8 -3 -12 -2 -9 4 3 6 1 10 -5 10 -6 0 -8 5 -5 10 3 6 -4 10 -17 10 -18
0 -20 2 -8 10 10 6 11 10 3 10 -7 0 -13 7 -13 16 0 9 -5 12 -12 8 -8 -5 -9 0
-6 14 4 12 3 20 -2 17 -4 -3 -19 4 -31 16 -13 11 -17 18 -9 14 8 -4 3 3 -12
15 -27 21 -40 49 -16 34 7 -4 8 -3 4 4 -4 6 -14 8 -23 5 -13 -5 -15 -2 -11 15
4 12 2 20 -3 16 -8 -5 -14 17 -10 39 1 5 -3 6 -8 2 -6 -3 -7 -13 -4 -23 3 -9
3 -14 -1 -11 -4 4 -9 16 -11 29 -2 12 -12 29 -22 37 -11 9 -12 12 -3 8 10 -4
9 -2 -2 8 -10 8 -18 20 -18 26 0 7 -5 9 -11 5 -8 -4 -8 0 0 15 7 12 8 20 4 19
-4 -1 -18 2 -31 6 -19 6 -21 10 -11 22 9 11 9 14 -1 14 -8 0 -11 9 -8 25 4 17
1 25 -8 25 -8 0 -14 5 -14 11 0 5 4 8 9 5 5 -4 4 5 -2 19 -7 14 -17 25 -24 25
-7 0 -10 10 -7 26 3 14 1 23 -5 20 -5 -3 -12 1 -15 10 -3 8 -2 12 3 9 5 -3 12
-1 16 5 3 5 -1 10 -9 10 -10 0 -13 6 -9 17 4 10 2 14 -4 10 -6 -4 -14 0 -17 9
-3 8 -2 12 4 9 12 -7 12 -3 4 19 -3 9 -11 13 -18 10 -6 -3 -2 2 8 10 18 15 14
20 -14 18 -6 0 -11 36 -14 86 -1 23 -5 31 -15 27 -10 -4 -11 -2 -4 7 13 17 14
56 2 64 -6 4 -6 11 1 19 8 9 8 15 0 20 -15 9 -13 28 3 19 6 -4 3 3 -8 16 -19
23 -19 23 -1 16 20 -7 20 -7 0 15 -10 12 -13 19 -6 15 6 -4 12 -2 12 3 0 6 -6
11 -12 12 -7 0 -4 4 7 9 15 7 16 9 4 9 -12 1 -15 8 -11 26 2 14 8 28 13 31 5
3 2 16 -7 28 -13 21 -13 25 1 40 12 12 13 16 3 16 -10 0 -10 2 -1 8 7 5 9 13
3 21 -11 18 -1 43 14 35 6 -3 4 1 -5 8 -14 11 -14 15 -3 26 16 15 19 36 4 27
-6 -3 -7 1 -4 9 3 9 11 16 18 16 8 0 8 2 0 8 -13 8 -15 44 -2 35 6 -3 7 8 5
25 -4 25 -2 30 11 24 15 -5 16 -4 2 13 -9 11 -10 16 -2 11 8 -5 12 1 12 18 0
14 6 26 13 26 8 0 7 4 -3 10 -13 8 -13 10 2 10 12 0 15 5 11 17 -5 12 -3 14 7
8 10 -6 11 -4 4 6 -14 23 -14 42 0 30 9 -8 12 -6 11 7 0 9 -5 24 -10 31 -5 10
-4 12 3 7 7 -4 12 -1 12 9 0 9 4 14 10 10 5 -3 6 -13 3 -23 -3 -9 -3 -14 1
-11 4 4 9 24 12 45 3 21 10 44 16 51 9 11 7 12 -8 7 -18 -6 -18 -6 -1 8 10 7
17 20 15 28 -2 9 3 14 11 12 9 -2 11 3 7 14 -5 14 -4 15 8 5 11 -9 16 -9 22 0
4 7 3 9 -4 5 -6 -4 -10 1 -9 13 0 11 6 17 14 14 7 -3 13 0 13 6 0 6 -5 11 -12
11 -17 0 -3 11 19 14 10 2 17 10 15 20 -2 9 2 16 8 16 6 0 8 5 5 10 -3 6 1 13
9 16 9 3 16 13 16 21 0 8 5 11 12 7 8 -5 9 -2 5 9 -3 10 -2 17 4 17 6 0 7 6 3
13 -6 8 -3 8 9 -1 14 -12 16 -11 12 6 -2 12 4 27 13 34 15 12 16 11 3 -4 -7
-10 -9 -18 -3 -18 13 0 24 29 15 43 -4 7 1 6 11 -2 9 -8 16 -10 15 -5 -4 21 2
35 11 29 6 -3 10 4 10 15 0 15 5 20 14 17 8 -3 13 1 12 11 0 10 3 18 8 19 5 1
17 14 27 30 10 15 19 24 19 19 0 -5 8 -2 18 7 10 10 22 14 26 10 4 -4 4 1 0
12 -7 18 -6 18 9 6 10 -8 20 -11 24 -7 3 3 1 6 -5 6 -7 0 -12 5 -12 11 0 6 7
8 16 5 12 -5 14 -1 8 17 -3 12 -3 19 1 15 5 -4 15 -2 23 5 13 9 14 9 8 0 -4
-7 -2 -13 3 -13 6 0 11 5 11 11 0 6 7 8 16 5 14 -5 15 -4 5 8 -10 12 -6 17 29
27 23 7 36 15 30 19 -12 7 11 21 40 25 17 2 59 24 47 25 -5 0 -18 -5 -30 -11
-22 -10 -22 -10 -2 6 11 9 30 14 41 12 15 -2 21 1 20 12 -1 10 8 16 22 17 13
1 30 10 38 20 9 11 13 14 10 7 -9 -16 57 17 67 34 7 11 12 11 23 2 8 -6 14 -7
14 -2z m4 -115 c3 -5 -1 -9 -9 -9 -8 0 -12 4 -9 9 3 4 7 8 9 8 2 0 6 -4 9 -8z
m1960 -290 c3 -5 -1 -9 -9 -9 -8 0 -12 4 -9 9 3 4 7 8 9 8 2 0 6 -4 9 -8z
m1313 -257 c0 -8 -4 -12 -9 -9 -5 3 -6 10 -3 15 9 13 12 11 12 -6z m29 -380
c-3 -23 -12 -26 -13 -5 -1 11 2 20 7 20 4 0 7 -7 6 -15z m-1111 -323 c-3 -3
-11 0 -18 7 -9 10 -8 11 6 5 10 -3 15 -9 12 -12z m302 -184 c-3 -8 -6 -5 -6 6
-1 11 2 17 5 13 3 -3 4 -12 1 -19z m-1582 -747 c3 -5 0 -13 -6 -17 -8 -5 -9
-3 -4 6 6 10 4 12 -9 7 -10 -4 -15 -3 -11 3 8 13 22 13 30 1z m606 -198 c13
-16 12 -17 -3 -4 -10 7 -18 15 -18 17 0 8 8 3 21 -13z m-1686 -224 c11 -17 -1
-21 -15 -4 -8 9 -8 15 -2 15 6 0 14 -5 17 -11z m1565 -29 c0 -5 -2 -10 -4 -10
-3 0 -8 5 -11 10 -3 6 -1 10 4 10 6 0 11 -4 11 -10z m-300 -371 c0 -6 -4 -7
-10 -4 -5 3 -10 11 -10 16 0 6 5 7 10 4 6 -3 10 -11 10 -16z m1754 -325 c5
-14 4 -15 -9 -4 -17 14 -19 20 -6 20 5 0 12 -7 15 -16z m31 -34 c-3 -5 -1 -10
6 -10 7 0 10 -3 6 -6 -9 -9 -28 6 -22 17 4 5 8 9 11 9 3 0 2 -4 -1 -10z m136
-233 c-10 -9 -11 -8 -5 6 3 10 9 15 12 12 3 -3 0 -11 -7 -18z m-3616 -747 c0
-1 10 -3 22 -4 12 -1 20 1 17 6 -3 4 -1 8 4 8 6 0 13 -7 16 -16 5 -14 9 -14
23 -3 15 12 16 12 10 -6 -7 -20 -7 -20 8 -1 9 12 15 15 15 7 0 -11 3 -11 15
-1 13 11 14 10 8 -6 -6 -17 -5 -18 12 -4 10 8 16 10 12 3 -10 -16 14 -22 37
-11 10 6 16 6 13 1 -2 -4 -1 -17 4 -28 7 -19 8 -19 8 2 1 22 2 22 20 6 11 -9
17 -21 14 -26 -3 -6 -1 -7 5 -3 6 3 13 2 17 -4 4 -6 11 -8 16 -4 6 3 17 -2 25
-12 13 -18 14 -18 8 1 -7 20 -7 20 9 0 8 -11 13 -24 9 -30 -3 -5 2 -4 11 4 12
9 17 10 17 2 0 -7 4 -10 9 -6 5 3 13 0 17 -6 4 -7 3 -9 -4 -5 -6 3 -14 2 -17
-4 -4 -6 -3 -10 2 -9 28 5 42 -2 36 -18 -6 -16 -5 -16 10 -4 15 12 17 12 12
-1 -4 -10 1 -17 16 -21 15 -4 20 -11 15 -22 -3 -9 -2 -13 3 -10 5 3 12 -4 16
-15 3 -11 17 -28 30 -38 13 -11 21 -22 18 -26 -3 -3 -1 -6 6 -6 8 0 11 -8 8
-20 -3 -13 0 -20 9 -20 8 0 14 -9 14 -19 0 -11 6 -26 14 -33 7 -8 17 -24 20
-36 4 -12 12 -20 17 -17 5 4 9 1 9 -4 0 -6 -4 -11 -10 -11 -5 0 -7 -7 -4 -15
4 -8 10 -13 14 -10 5 3 6 -5 2 -17 -4 -16 -2 -19 9 -13 12 7 12 6 1 -7 -9 -11
-9 -17 -2 -20 6 -2 12 -13 13 -26 1 -15 6 -21 17 -17 11 4 10 1 -3 -9 -16 -12
-16 -14 -2 -20 9 -3 13 -10 10 -16 -3 -5 -1 -10 4 -10 6 0 11 -7 11 -16 0 -9
5 -12 13 -8 8 5 7 2 -2 -10 -13 -15 -12 -18 7 -23 22 -5 24 -9 26 -48 1 -12 7
-19 16 -17 10 1 9 -3 -5 -14 -20 -16 -20 -16 2 -9 18 5 22 3 17 -9 -4 -11 -2
-15 8 -11 9 4 15 0 15 -9 0 -8 -3 -13 -7 -11 -4 2 -7 -2 -7 -9 0 -7 7 -13 16
-12 9 1 16 -5 17 -11 1 -7 2 -18 3 -24 0 -5 7 -7 14 -3 8 5 8 2 -2 -9 -12 -15
-9 -21 11 -19 3 1 12 -6 20 -15 9 -12 9 -15 1 -9 -7 4 -13 5 -13 2 0 -3 12
-13 28 -21 15 -9 19 -14 9 -11 -17 5 -17 4 2 -23 11 -15 18 -31 15 -34 -3 -3
5 -3 18 0 12 3 20 3 16 -2 -4 -4 -1 -14 5 -22 39 -48 65 -72 71 -66 4 4 4 0 0
-10 -4 -12 -1 -17 9 -17 9 0 22 -9 30 -20 8 -11 17 -17 22 -12 5 4 6 2 2 -3
-3 -6 1 -19 9 -30 10 -13 14 -15 14 -4 0 12 2 12 10 -1 6 -9 5 -17 -3 -23 -7
-5 -3 -6 11 -2 16 5 22 2 22 -10 0 -9 5 -13 10 -10 6 3 10 -1 10 -11 0 -14 2
-15 17 -3 11 10 14 10 9 2 -4 -8 -2 -13 4 -13 6 0 8 -4 5 -10 -6 -10 7 -14 34
-11 7 2 10 -2 7 -7 -8 -14 21 -35 36 -26 10 6 10 5 0 -8 -11 -14 -10 -16 6
-11 11 2 23 -1 27 -8 6 -8 4 -10 -6 -4 -11 6 -12 5 -2 -5 10 -11 15 -11 29 1
16 12 17 12 12 -3 -4 -10 1 -23 14 -35 12 -10 18 -12 13 -4 -6 11 -5 12 6 5 8
-5 17 -9 21 -9 3 0 18 -10 32 -22 17 -15 26 -18 30 -10 2 7 5 3 5 -8 1 -17 3
-17 11 -5 8 13 10 12 10 -4 0 -15 3 -16 15 -6 13 11 14 10 9 -4 -5 -12 -2 -15
12 -9 13 5 16 3 12 -8 -4 -9 1 -15 11 -16 47 -4 61 -8 57 -19 -3 -8 4 -11 20
-9 15 1 24 -3 24 -11 0 -8 5 -14 11 -14 5 0 7 5 3 11 -3 6 7 4 24 -5 23 -12
32 -13 35 -3 3 7 6 5 6 -5 1 -20 16 -24 26 -7 5 7 13 5 24 -5 10 -9 22 -13 26
-9 5 5 4 1 -2 -7 -10 -13 -8 -16 7 -16 10 0 16 5 12 11 -3 5 6 2 21 -7 14 -10
33 -18 42 -18 8 0 15 -5 15 -11 0 -8 6 -7 17 2 14 12 16 12 8 0 -6 -11 -4 -13
9 -8 14 5 17 3 12 -8 -3 -10 1 -15 12 -16 16 -1 16 -2 0 -6 -10 -2 -18 -9 -18
-14 0 -6 5 -7 12 -3 6 4 8 3 4 -4 -3 -6 -15 -9 -26 -7 -11 2 -20 -1 -20 -6 0
-6 -4 -7 -10 -4 -5 3 -10 1 -10 -4 0 -6 -11 -11 -24 -11 -13 0 -29 -6 -35 -14
-7 -8 -22 -11 -37 -8 -20 4 -32 -1 -46 -19 -17 -21 -19 -21 -14 -4 6 20 6 20
-9 1 -8 -11 -15 -14 -15 -7 0 7 -5 9 -10 6 -6 -4 -7 -12 -3 -18 4 -8 1 -7 -9
1 -13 10 -18 10 -24 1 -5 -8 -3 -9 6 -4 9 5 11 4 6 -4 -5 -7 -12 -9 -19 -3
-17 12 -36 9 -46 -7 -6 -10 -10 -10 -16 -1 -5 8 -14 5 -32 -12 -22 -20 -24
-21 -18 -3 6 16 3 15 -13 -5 -19 -23 -21 -23 -28 -7 -4 12 -9 15 -14 7 -4 -6
-20 -13 -36 -16 -22 -3 -25 -2 -14 6 12 8 9 9 -10 6 -14 -3 -29 -5 -33 -5 -5
-1 -5 -5 -2 -11 3 -6 -1 -7 -9 -4 -9 3 -14 9 -12 13 3 4 -4 7 -14 7 -13 0 -16
-4 -9 -12 7 -8 1 -10 -23 -8 -18 2 -39 6 -45 9 -7 2 -13 0 -13 -6 0 -6 -6 -7
-12 -2 -7 4 -26 6 -42 4 -18 -2 -26 1 -22 8 4 7 1 8 -8 5 -9 -3 -13 -11 -10
-16 5 -7 1 -7 -11 -1 -10 6 -26 8 -36 6 -11 -3 -19 0 -19 6 0 6 -5 11 -11 11
-5 0 -7 -5 -3 -11 4 -7 -1 -7 -15 1 -16 8 -26 8 -35 1 -10 -8 -17 -7 -26 4
-15 18 -34 20 -24 3 6 -10 5 -10 -8 -1 -8 7 -19 9 -23 5 -5 -4 -5 -1 -1 6 7
12 -3 16 -36 13 -10 -1 -18 3 -18 8 0 6 -4 11 -10 11 -5 0 -7 -8 -3 -17 4 -12
-1 -10 -16 7 -12 14 -20 19 -16 13 3 -7 1 -13 -4 -13 -6 0 -11 5 -11 11 0 5
-4 7 -10 4 -5 -3 -10 0 -10 7 0 9 -3 9 -10 -2 -8 -13 -10 -12 -10 3 0 9 -4 17
-9 17 -5 0 -18 3 -28 6 -15 5 -15 4 -3 -5 10 -7 11 -11 3 -11 -7 0 -17 9 -24
21 -8 15 -14 18 -22 10 -7 -7 -14 -5 -24 7 -14 16 -14 16 -9 -3 6 -18 4 -18
-13 3 -11 12 -24 22 -30 22 -6 0 -11 6 -11 13 0 8 -4 7 -10 -3 -7 -11 -10 -11
-10 -2 0 7 -4 11 -9 7 -5 -3 -13 0 -17 6 -4 7 -3 9 4 5 6 -3 14 -1 18 6 4 7 3
10 -1 5 -5 -4 -20 0 -34 10 -24 15 -25 15 -12 0 12 -15 12 -17 -3 -11 -9 3
-16 12 -16 20 0 8 -5 14 -11 14 -5 0 -7 -6 -4 -12 4 -7 0 -5 -8 4 -10 13 -16
15 -25 6 -15 -15 -16 3 -2 20 6 6 7 10 4 7 -4 -2 -16 1 -28 8 -21 12 -27 14
-55 16 -11 1 -11 4 -1 16 11 13 10 14 -4 9 -9 -3 -16 -1 -16 5 0 6 -7 11 -15
11 -8 0 -20 9 -27 19 -9 14 -16 17 -24 10 -9 -8 -11 -4 -8 13 2 13 2 17 -2 11
-4 -10 -9 -10 -20 1 -8 8 -14 20 -14 26 0 6 -4 9 -9 6 -10 -7 -24 22 -16 33 2
5 -6 7 -20 6 -25 -3 -40 18 -28 38 4 8 1 7 -9 -1 -13 -11 -16 -10 -14 5 0 12
-6 18 -19 18 -13 0 -19 6 -17 18 2 9 -2 17 -9 17 -6 0 -8 7 -5 17 4 10 4 15 1
11 -9 -8 -57 41 -50 52 3 5 0 12 -6 16 -8 4 -9 3 -5 -4 4 -7 2 -12 -3 -12 -11
0 -15 15 -12 34 1 5 -6 3 -15 -5 -16 -13 -16 -12 -5 9 10 19 9 22 -6 23 -10 0
-13 3 -6 6 10 3 10 7 0 18 -7 7 -15 11 -19 8 -4 -2 -5 3 -2 11 4 11 -2 19 -17
25 -18 7 -19 10 -6 10 15 1 15 3 -3 21 -11 11 -20 27 -20 36 0 9 -5 12 -12 8
-8 -5 -9 -2 -5 9 4 10 0 20 -11 26 -14 8 -14 10 -2 11 12 0 13 2 1 9 -7 5 -14
22 -14 37 0 16 -2 23 -4 17 -3 -7 -9 -13 -14 -13 -4 0 -5 8 -2 17 5 12 2 15
-9 11 -11 -5 -14 -1 -10 18 2 14 0 24 -7 24 -6 0 -10 3 -10 8 5 30 -2 62 -13
56 -7 -5 -9 -2 -5 8 3 9 -1 28 -9 43 -17 34 -18 48 -1 40 6 -4 5 -1 -4 7 -22
18 -28 40 -16 62 8 16 6 18 -7 13 -11 -5 -15 -3 -10 4 4 7 6 32 5 58 -1 25 -2
54 -2 64 0 9 -4 15 -9 12 -12 -8 -17 15 -14 68 2 26 -1 45 -6 42 -4 -3 -7 3
-5 12 2 10 4 22 4 26 1 5 6 5 12 1 8 -4 7 -9 -2 -15 -10 -6 -10 -9 -2 -9 23 0
23 19 1 34 -20 14 -20 16 -4 16 16 0 17 2 5 17 -12 15 -12 16 5 10 16 -6 17
-5 7 7 -7 8 -9 21 -5 27 4 7 3 9 -2 6 -12 -7 -11 40 1 50 4 5 5 3 1 -4 -3 -6
-2 -14 3 -17 11 -7 9 13 -3 33 -7 10 -6 12 4 6 10 -6 12 -1 8 19 -3 14 -2 26
1 26 3 0 6 13 6 29 1 16 -2 28 -6 25 -4 -2 -5 5 -2 16 3 11 10 17 17 13 6 -4
5 1 -2 10 -11 12 -11 20 -2 34 10 15 11 15 6 1 -3 -12 -1 -15 10 -11 8 3 13
12 10 20 -5 11 -2 11 15 2 15 -8 19 -8 15 0 -8 12 6 15 18 4 9 -9 46 -11 40
-2 -5 9 32 17 61 13 11 -1 20 -3 20 -4z m295 -66 c0 -8 -5 -12 -10 -9 -6 4 -8
11 -5 16 9 14 15 11 15 -7z m231 -201 c13 -16 12 -17 -3 -4 -17 13 -22 21 -14
21 2 0 10 -8 17 -17z m3219 -668 c-7 -8 -17 -15 -23 -15 -6 0 -2 7 9 15 25 19
30 19 14 0z m-3289 -682 c13 -16 12 -17 -3 -4 -17 13 -22 21 -14 21 2 0 10 -8
17 -17z m1179 -189 c0 -8 -19 -13 -24 -6 -3 5 1 9 9 9 8 0 15 -2 15 -3z
m-1320 -30 c0 -8 -19 -13 -24 -6 -3 5 1 9 9 9 8 0 15 -2 15 -3z m237 -146 c-3
-8 -6 -5 -6 6 -1 11 2 17 5 13 3 -3 4 -12 1 -19z m243 -64 c0 -8 -19 -13 -24
-6 -3 5 1 9 9 9 8 0 15 -2 15 -3z"/>
<path d="M6893 7865 c0 -8 4 -12 9 -9 5 3 6 10 3 15 -9 13 -12 11 -12 -6z"/>
<path d="M4115 8049 c-4 -6 -5 -12 -2 -15 2 -3 7 2 10 11 7 17 1 20 -8 4z"/>
<path d="M3993 6425 c0 -8 4 -12 9 -9 5 3 6 10 3 15 -9 13 -12 11 -12 -6z"/>
<path d="M4170 6100 c0 -5 5 -10 11 -10 5 0 7 5 4 10 -3 6 -8 10 -11 10 -2 0
-4 -4 -4 -10z"/>
<path d="M3950 5351 c0 -6 4 -13 10 -16 6 -3 7 1 4 9 -7 18 -14 21 -14 7z"/>
<path d="M6830 2659 c0 -5 5 -7 10 -4 6 3 10 8 10 11 0 2 -4 4 -10 4 -5 0 -10
-5 -10 -11z"/>
<path d="M6800 2630 c-8 -5 -12 -12 -9 -15 4 -3 12 1 19 10 14 17 11 19 -10 5z"/>
<path d="M3451 3613 c-1 -17 16 -25 25 -12 4 7 3 9 -4 5 -5 -3 -13 0 -15 6 -4
9 -6 10 -6 1z"/>
<path d="M4213 2885 c0 -8 4 -12 9 -9 5 3 6 10 3 15 -9 13 -12 11 -12 -6z"/>
<path d="M3646 2273 c-6 -14 -5 -15 5 -6 7 7 10 15 7 18 -3 3 -9 -2 -12 -12z"/>
<path d="M5241 2024 c0 -11 3 -14 6 -6 3 7 2 16 -1 19 -3 4 -6 -2 -5 -13z"/>
<path d="M2883 7165 c0 -8 4 -12 9 -9 5 3 6 10 3 15 -9 13 -12 11 -12 -6z"/>
<path d="M4520 6140 c0 -5 5 -10 11 -10 5 0 7 5 4 10 -3 6 -8 10 -11 10 -2 0
-4 -4 -4 -10z"/>
<path d="M5395 5650 c3 -5 8 -10 11 -10 2 0 4 5 4 10 0 6 -5 10 -11 10 -5 0
-7 -4 -4 -10z"/>
<path d="M7400 4359 c0 -5 5 -7 10 -4 6 3 10 8 10 11 0 2 -4 4 -10 4 -5 0 -10
-5 -10 -11z"/>
<path d="M3890 1710 c0 -5 5 -10 11 -10 5 0 7 5 4 10 -3 6 -8 10 -11 10 -2 0
-4 -4 -4 -10z"/>
</g>
</svg>
